<svg width="94" height="116" viewBox="0 0 94 116" fill="none" xmlns="http://www.w3.org/2000/svg">
<g clip-path="url(#clip0_85_1067)">
<path d="M46.7143 16.7L90.4286 34.1857V40.0142H84.6C84.6 40.8035 84.2888 41.4866 83.6665 42.0633C83.0442 42.6401 82.308 42.9285 81.458 42.9285H11.9705C11.1205 42.9285 10.3844 42.6401 9.76205 42.0633C9.13973 41.4866 8.82857 40.8035 8.82857 40.0142H3V34.1857L46.7143 16.7ZM14.6571 45.8428H26.3143V80.8142H32.1429V45.8428H43.8V80.8142H49.6286V45.8428H61.2857V80.8142H67.1143V45.8428H78.7714V80.8142H81.458C82.308 80.8142 83.0442 81.1026 83.6665 81.6794C84.2888 82.2562 84.6 82.9392 84.6 83.7285V86.6428H8.82857V83.7285C8.82857 82.9392 9.13973 82.2562 9.76205 81.6794C10.3844 81.1026 11.1205 80.8142 11.9705 80.8142H14.6571V45.8428ZM87.2866 89.5571C88.1366 89.5571 88.8728 89.8455 89.4951 90.4223C90.1174 90.9991 90.4286 91.6821 90.4286 92.4714V98.2999H3V92.4714C3 91.6821 3.31116 90.9991 3.93348 90.4223C4.5558 89.8455 5.29196 89.5571 6.14196 89.5571H87.2866Z" fill="#1FAF38"/>
</g>
<defs>
<clipPath id="clip0_85_1067">
<rect width="87.4286" height="81.6" fill="white" transform="translate(3 16.7)"/>
</clipPath>
</defs>
</svg>
