<svg width="94" height="116" viewBox="0 0 94 116" fill="none" xmlns="http://www.w3.org/2000/svg">
<g clip-path="url(#clip0_85_1078)">
<path fill-rule="evenodd" clip-rule="evenodd" d="M24 48.5C23.9994 45.6819 24.7432 42.9136 26.1561 40.4753C27.569 38.0369 29.6008 36.015 32.046 34.614C32.018 32.8553 32.0027 30.8173 32 28.5C32 23.398 32.088 19.69 32.18 17.21C32.266 14.81 33.888 12.836 36.28 12.64C37.3 12.558 38.536 12.5 40 12.5C41.464 12.5 42.7 12.558 43.72 12.64C46.112 12.836 47.734 14.81 47.82 17.21C47.912 19.69 48 23.398 48 28.5C47.9987 30.8173 47.9833 32.8553 47.954 34.614C50.3928 36.0113 52.4205 38.0263 53.8329 40.4563C55.2454 42.8864 55.9928 45.6456 55.9999 48.4563C56.0071 51.267 55.2737 54.03 53.8735 56.4671C52.4734 58.9043 50.456 60.9296 48.0243 62.3392C45.5927 63.7488 42.8326 64.493 40.0219 64.4968C37.2112 64.5007 34.449 63.764 32.0135 62.3611C29.578 60.9581 27.5551 58.9383 26.1483 56.505C24.7415 54.0717 24.0006 51.3107 24 48.5ZM53.99 31.52C53.9967 30.5733 54 29.5667 54 28.5C54 23.33 53.912 19.548 53.818 16.99C53.7868 16.163 53.6641 15.342 53.452 14.542C68.148 19.55 78.778 33.212 79.11 49.388L86.87 60.208C88.256 62.142 88.11 64.968 85.86 66.346C84.154 67.386 81.662 68.6 78.318 69.486L77.166 83.146C77.087 84.0849 76.8192 84.9982 76.3787 85.8311C75.9383 86.6641 75.3342 87.3995 74.6027 87.9934C73.8712 88.5873 73.0273 89.0274 72.1216 89.2873C71.2159 89.5472 70.2671 89.6216 69.332 89.506L64.292 88.882V94.716C64.292 97.73 62.33 100.456 59.254 101.026C55.552 101.716 49.486 102.5 41.058 102.5C32.63 102.5 26.566 101.716 22.862 101.026C19.788 100.454 17.822 97.73 17.822 94.716V80C8.814 73.116 3 62.314 3 50.166C3 34.518 12.64 21.106 26.354 15.416C26.2607 15.936 26.2033 16.4607 26.182 16.99C26.088 19.548 26 23.33 26 28.5C26 29.5667 26.0033 30.5733 26.01 31.52C23.5028 33.5823 21.484 36.1747 20.0989 39.1108C18.7139 42.0469 17.997 45.2536 18 48.5C18 60.232 27.184 69.82 38.754 70.466C45.29 76.534 54.8 80.5 64 80.5C64.7957 80.5 65.5587 80.1839 66.1213 79.6213C66.6839 79.0587 67 78.2956 67 77.5C67 76.7044 66.6839 75.9413 66.1213 75.3787C65.5587 74.8161 64.7957 74.5 64 74.5C58.156 74.5 52.062 72.534 47.076 69.338C55.756 66.392 62 58.174 62 48.5C62.003 45.2536 61.2861 42.0469 59.9011 39.1108C58.516 36.1747 56.4972 33.5823 53.99 31.52Z" fill="#1FAF38"/>
</g>
<defs>
<clipPath id="clip0_85_1078">
<rect width="93.1288" height="115" fill="white" transform="translate(0 0.5)"/>
</clipPath>
</defs>
</svg>
