<svg width="107" height="87" viewBox="0 0 107 87" fill="none" xmlns="http://www.w3.org/2000/svg">
<path d="M107 8.6497C97.1757 16.1248 90.1277 23.2794 85.8563 30.1138C81.7984 36.7345 79.7695 44.1028 79.7695 52.2186C82.5459 50.51 85.7495 49.6557 89.3802 49.6557C94.2924 49.6557 98.2435 51.3643 101.234 54.7814C104.437 57.985 106.039 62.1497 106.039 67.2755C106.039 73.0419 104.01 77.7405 99.9521 81.3713C96.1078 85.002 90.8753 86.8174 84.2545 86.8174C69.0908 86.8174 61.509 76.7794 61.509 56.7036C61.509 51.3643 62.1497 46.4521 63.4311 41.9671C64.7126 37.2685 66.7415 32.7834 69.518 28.512C72.508 24.0269 76.4591 19.5419 81.3713 15.0569C86.2834 10.3583 92.3703 5.33932 99.6317 0L107 8.6497ZM45.491 8.6497C35.6667 16.1248 28.6188 23.2794 24.3473 30.1138C20.2894 36.7345 18.2605 44.1028 18.2605 52.2186C21.0369 50.51 24.2405 49.6557 27.8713 49.6557C32.7834 49.6557 36.7345 51.3643 39.7246 54.7814C42.9281 57.985 44.5299 62.1497 44.5299 67.2755C44.5299 73.0419 42.501 77.7405 38.4431 81.3713C34.5988 85.002 29.3663 86.8174 22.7455 86.8174C7.58184 86.8174 0 76.7794 0 56.7036C0 51.3643 0.640719 46.4521 1.92216 41.9671C3.20359 37.2685 5.23254 32.7834 8.00898 28.512C10.999 24.0269 14.9501 19.5419 19.8623 15.0569C24.7745 10.3583 30.8613 5.33932 38.1228 0L45.491 8.6497Z" fill="#136EE7"/>
</svg>
