<svg width="890" height="135" viewBox="0 0 890 135" fill="none" xmlns="http://www.w3.org/2000/svg">
<rect x="630" width="222" height="40" fill="#FFDB00"/>
<path d="M648.032 17.296C648.48 16.512 649.136 15.872 650 15.376C650.864 14.88 651.848 14.632 652.952 14.632C654.136 14.632 655.2 14.912 656.144 15.472C657.088 16.032 657.832 16.824 658.376 17.848C658.92 18.856 659.192 20.032 659.192 21.376C659.192 22.704 658.92 23.888 658.376 24.928C657.832 25.968 657.08 26.776 656.12 27.352C655.176 27.928 654.12 28.216 652.952 28.216C651.816 28.216 650.816 27.968 649.952 27.472C649.104 26.976 648.464 26.344 648.032 25.576V28H645.848V10.24H648.032V17.296ZM656.96 21.376C656.96 20.384 656.76 19.52 656.36 18.784C655.96 18.048 655.416 17.488 654.728 17.104C654.056 16.72 653.312 16.528 652.496 16.528C651.696 16.528 650.952 16.728 650.264 17.128C649.592 17.512 649.048 18.08 648.632 18.832C648.232 19.568 648.032 20.424 648.032 21.4C648.032 22.392 648.232 23.264 648.632 24.016C649.048 24.752 649.592 25.32 650.264 25.72C650.952 26.104 651.696 26.296 652.496 26.296C653.312 26.296 654.056 26.104 654.728 25.72C655.416 25.32 655.96 24.752 656.36 24.016C656.76 23.264 656.96 22.384 656.96 21.376ZM667.802 28.216C666.57 28.216 665.45 27.936 664.442 27.376C663.45 26.816 662.666 26.024 662.09 25C661.53 23.96 661.25 22.76 661.25 21.4C661.25 20.056 661.538 18.872 662.114 17.848C662.706 16.808 663.506 16.016 664.514 15.472C665.522 14.912 666.65 14.632 667.898 14.632C669.146 14.632 670.274 14.912 671.282 15.472C672.29 16.016 673.082 16.8 673.658 17.824C674.25 18.848 674.546 20.04 674.546 21.4C674.546 22.76 674.242 23.96 673.634 25C673.042 26.024 672.234 26.816 671.21 27.376C670.186 27.936 669.05 28.216 667.802 28.216ZM667.802 26.296C668.586 26.296 669.322 26.112 670.01 25.744C670.698 25.376 671.25 24.824 671.666 24.088C672.098 23.352 672.314 22.456 672.314 21.4C672.314 20.344 672.106 19.448 671.69 18.712C671.274 17.976 670.73 17.432 670.058 17.08C669.386 16.712 668.658 16.528 667.874 16.528C667.074 16.528 666.338 16.712 665.666 17.08C665.01 17.432 664.482 17.976 664.082 18.712C663.682 19.448 663.482 20.344 663.482 21.4C663.482 22.472 663.674 23.376 664.058 24.112C664.458 24.848 664.986 25.4 665.642 25.768C666.298 26.12 667.018 26.296 667.802 26.296ZM683.154 28.216C681.922 28.216 680.802 27.936 679.794 27.376C678.802 26.816 678.018 26.024 677.442 25C676.882 23.96 676.602 22.76 676.602 21.4C676.602 20.056 676.89 18.872 677.466 17.848C678.058 16.808 678.858 16.016 679.866 15.472C680.874 14.912 682.002 14.632 683.25 14.632C684.498 14.632 685.626 14.912 686.634 15.472C687.642 16.016 688.434 16.8 689.01 17.824C689.602 18.848 689.898 20.04 689.898 21.4C689.898 22.76 689.594 23.96 688.986 25C688.394 26.024 687.586 26.816 686.562 27.376C685.538 27.936 684.402 28.216 683.154 28.216ZM683.154 26.296C683.938 26.296 684.674 26.112 685.362 25.744C686.05 25.376 686.602 24.824 687.018 24.088C687.45 23.352 687.666 22.456 687.666 21.4C687.666 20.344 687.458 19.448 687.042 18.712C686.626 17.976 686.082 17.432 685.41 17.08C684.738 16.712 684.01 16.528 683.226 16.528C682.426 16.528 681.69 16.712 681.018 17.08C680.362 17.432 679.834 17.976 679.434 18.712C679.034 19.448 678.834 20.344 678.834 21.4C678.834 22.472 679.026 23.376 679.41 24.112C679.81 24.848 680.338 25.4 680.994 25.768C681.65 26.12 682.37 26.296 683.154 26.296ZM700.113 28L694.953 22.192V28H692.769V10.24H694.953V20.68L700.017 14.848H703.065L696.873 21.4L703.089 28H700.113ZM710.703 21.376C710.703 20.032 710.975 18.856 711.519 17.848C712.063 16.824 712.807 16.032 713.751 15.472C714.711 14.912 715.775 14.632 716.943 14.632C718.095 14.632 719.095 14.88 719.943 15.376C720.791 15.872 721.423 16.496 721.839 17.248V14.848H724.047V28H721.839V25.552C721.407 26.32 720.759 26.96 719.895 27.472C719.047 27.968 718.055 28.216 716.919 28.216C715.751 28.216 714.695 27.928 713.751 27.352C712.807 26.776 712.063 25.968 711.519 24.928C710.975 23.888 710.703 22.704 710.703 21.376ZM721.839 21.4C721.839 20.408 721.639 19.544 721.239 18.808C720.839 18.072 720.295 17.512 719.607 17.128C718.935 16.728 718.191 16.528 717.375 16.528C716.559 16.528 715.815 16.72 715.143 17.104C714.471 17.488 713.935 18.048 713.535 18.784C713.135 19.52 712.935 20.384 712.935 21.376C712.935 22.384 713.135 23.264 713.535 24.016C713.935 24.752 714.471 25.32 715.143 25.72C715.815 26.104 716.559 26.296 717.375 26.296C718.191 26.296 718.935 26.104 719.607 25.72C720.295 25.32 720.839 24.752 721.239 24.016C721.639 23.264 721.839 22.392 721.839 21.4ZM738.793 28.216C737.785 28.216 736.881 28.048 736.081 27.712C735.281 27.36 734.649 26.88 734.185 26.272C733.721 25.648 733.465 24.936 733.417 24.136H735.673C735.737 24.792 736.041 25.328 736.585 25.744C737.145 26.16 737.873 26.368 738.769 26.368C739.601 26.368 740.257 26.184 740.737 25.816C741.217 25.448 741.457 24.984 741.457 24.424C741.457 23.848 741.201 23.424 740.689 23.152C740.177 22.864 739.385 22.584 738.313 22.312C737.337 22.056 736.537 21.8 735.913 21.544C735.305 21.272 734.777 20.88 734.329 20.368C733.897 19.84 733.681 19.152 733.681 18.304C733.681 17.632 733.881 17.016 734.281 16.456C734.681 15.896 735.249 15.456 735.985 15.136C736.721 14.8 737.561 14.632 738.505 14.632C739.961 14.632 741.137 15 742.033 15.736C742.929 16.472 743.409 17.48 743.473 18.76H741.289C741.241 18.072 740.961 17.52 740.449 17.104C739.953 16.688 739.281 16.48 738.433 16.48C737.649 16.48 737.025 16.648 736.561 16.984C736.097 17.32 735.865 17.76 735.865 18.304C735.865 18.736 736.001 19.096 736.273 19.384C736.561 19.656 736.913 19.88 737.329 20.056C737.761 20.216 738.353 20.4 739.105 20.608C740.049 20.864 740.817 21.12 741.409 21.376C742.001 21.616 742.505 21.984 742.921 22.48C743.353 22.976 743.577 23.624 743.593 24.424C743.593 25.144 743.393 25.792 742.993 26.368C742.593 26.944 742.025 27.4 741.289 27.736C740.569 28.056 739.737 28.216 738.793 28.216ZM747.804 12.712C747.388 12.712 747.036 12.568 746.748 12.28C746.46 11.992 746.316 11.64 746.316 11.224C746.316 10.808 746.46 10.456 746.748 10.168C747.036 9.88 747.388 9.736 747.804 9.736C748.204 9.736 748.54 9.88 748.812 10.168C749.1 10.456 749.244 10.808 749.244 11.224C749.244 11.64 749.1 11.992 748.812 12.28C748.54 12.568 748.204 12.712 747.804 12.712ZM748.86 14.848V28H746.676V14.848H748.86ZM755.246 16.648V24.4C755.246 25.04 755.382 25.496 755.654 25.768C755.926 26.024 756.398 26.152 757.07 26.152H758.678V28H756.71C755.494 28 754.582 27.72 753.974 27.16C753.366 26.6 753.062 25.68 753.062 24.4V16.648H751.358V14.848H753.062V11.536H755.246V14.848H758.678V16.648H755.246ZM773.324 20.92C773.324 21.336 773.3 21.776 773.252 22.24H762.74C762.82 23.536 763.26 24.552 764.06 25.288C764.876 26.008 765.86 26.368 767.012 26.368C767.956 26.368 768.74 26.152 769.364 25.72C770.004 25.272 770.452 24.68 770.708 23.944H773.06C772.708 25.208 772.004 26.24 770.948 27.04C769.892 27.824 768.58 28.216 767.012 28.216C765.764 28.216 764.644 27.936 763.652 27.376C762.676 26.816 761.908 26.024 761.348 25C760.788 23.96 760.508 22.76 760.508 21.4C760.508 20.04 760.78 18.848 761.324 17.824C761.868 16.8 762.628 16.016 763.604 15.472C764.596 14.912 765.732 14.632 767.012 14.632C768.26 14.632 769.364 14.904 770.324 15.448C771.284 15.992 772.02 16.744 772.532 17.704C773.06 18.648 773.324 19.72 773.324 20.92ZM771.068 20.464C771.068 19.632 770.884 18.92 770.516 18.328C770.148 17.72 769.644 17.264 769.004 16.96C768.38 16.64 767.684 16.48 766.916 16.48C765.812 16.48 764.868 16.832 764.084 17.536C763.316 18.24 762.876 19.216 762.764 20.464H771.068ZM787.501 25.984L791.581 14.848H793.909L788.749 28H786.205L781.045 14.848H783.397L787.501 25.984ZM797.186 12.712C796.77 12.712 796.418 12.568 796.13 12.28C795.842 11.992 795.698 11.64 795.698 11.224C795.698 10.808 795.842 10.456 796.13 10.168C796.418 9.88 796.77 9.736 797.186 9.736C797.586 9.736 797.922 9.88 798.194 10.168C798.482 10.456 798.626 10.808 798.626 11.224C798.626 11.64 798.482 11.992 798.194 12.28C797.922 12.568 797.586 12.712 797.186 12.712ZM798.242 14.848V28H796.058V14.848H798.242ZM806.621 28.216C805.613 28.216 804.709 28.048 803.909 27.712C803.109 27.36 802.477 26.88 802.013 26.272C801.549 25.648 801.293 24.936 801.245 24.136H803.501C803.565 24.792 803.869 25.328 804.413 25.744C804.973 26.16 805.701 26.368 806.597 26.368C807.429 26.368 808.085 26.184 808.565 25.816C809.045 25.448 809.285 24.984 809.285 24.424C809.285 23.848 809.029 23.424 808.517 23.152C808.005 22.864 807.213 22.584 806.141 22.312C805.165 22.056 804.365 21.8 803.741 21.544C803.133 21.272 802.605 20.88 802.157 20.368C801.725 19.84 801.509 19.152 801.509 18.304C801.509 17.632 801.709 17.016 802.109 16.456C802.509 15.896 803.077 15.456 803.813 15.136C804.549 14.8 805.389 14.632 806.333 14.632C807.789 14.632 808.965 15 809.861 15.736C810.757 16.472 811.237 17.48 811.301 18.76H809.117C809.069 18.072 808.789 17.52 808.277 17.104C807.781 16.688 807.109 16.48 806.261 16.48C805.477 16.48 804.853 16.648 804.389 16.984C803.925 17.32 803.693 17.76 803.693 18.304C803.693 18.736 803.829 19.096 804.101 19.384C804.389 19.656 804.741 19.88 805.157 20.056C805.589 20.216 806.181 20.4 806.933 20.608C807.877 20.864 808.645 21.12 809.237 21.376C809.829 21.616 810.333 21.984 810.749 22.48C811.181 22.976 811.405 23.624 811.421 24.424C811.421 25.144 811.221 25.792 810.821 26.368C810.421 26.944 809.853 27.4 809.117 27.736C808.397 28.056 807.565 28.216 806.621 28.216ZM815.632 12.712C815.216 12.712 814.864 12.568 814.576 12.28C814.288 11.992 814.144 11.64 814.144 11.224C814.144 10.808 814.288 10.456 814.576 10.168C814.864 9.88 815.216 9.736 815.632 9.736C816.032 9.736 816.368 9.88 816.64 10.168C816.928 10.456 817.072 10.808 817.072 11.224C817.072 11.64 816.928 11.992 816.64 12.28C816.368 12.568 816.032 12.712 815.632 12.712ZM816.688 14.848V28H814.504V14.848H816.688ZM823.074 16.648V24.4C823.074 25.04 823.21 25.496 823.482 25.768C823.754 26.024 824.226 26.152 824.898 26.152H826.506V28H824.538C823.322 28 822.41 27.72 821.802 27.16C821.194 26.6 820.89 25.68 820.89 24.4V16.648H819.186V14.848H820.89V11.536H823.074V14.848H826.506V16.648H823.074ZM833.424 11.056C835.008 11.056 836.288 11.504 837.264 12.4C838.24 13.296 838.728 14.496 838.728 16C838.728 17.68 838.208 18.928 837.168 19.744C836.128 20.544 834.72 20.944 832.944 20.944L832.872 23.224H830.976L830.88 19.432H831.576C833.16 19.432 834.4 19.192 835.296 18.712C836.192 18.232 836.64 17.328 836.64 16C836.64 15.04 836.352 14.28 835.776 13.72C835.2 13.16 834.424 12.88 833.448 12.88C832.456 12.88 831.672 13.152 831.096 13.696C830.536 14.224 830.256 14.952 830.256 15.88H828.192C828.192 14.92 828.408 14.08 828.84 13.36C829.272 12.624 829.88 12.056 830.664 11.656C831.464 11.256 832.384 11.056 833.424 11.056ZM831.912 28.144C831.496 28.144 831.144 28 830.856 27.712C830.568 27.424 830.424 27.072 830.424 26.656C830.424 26.24 830.568 25.888 830.856 25.6C831.144 25.312 831.496 25.168 831.912 25.168C832.312 25.168 832.648 25.312 832.92 25.6C833.208 25.888 833.352 26.24 833.352 26.656C833.352 27.072 833.208 27.424 832.92 27.712C832.648 28 832.312 28.144 831.912 28.144Z" fill="black"/>
<rect x="624" y="94.6462" width="234" height="40" fill="#136EE7"/>
<path d="M639.584 122.862C638.352 122.862 637.232 122.582 636.224 122.022C635.232 121.462 634.448 120.67 633.872 119.646C633.312 118.606 633.032 117.406 633.032 116.046C633.032 114.702 633.32 113.518 633.896 112.494C634.488 111.454 635.288 110.662 636.296 110.118C637.304 109.558 638.432 109.278 639.68 109.278C640.928 109.278 642.056 109.558 643.064 110.118C644.072 110.662 644.864 111.446 645.44 112.47C646.032 113.494 646.328 114.686 646.328 116.046C646.328 117.406 646.024 118.606 645.416 119.646C644.824 120.67 644.016 121.462 642.992 122.022C641.968 122.582 640.832 122.862 639.584 122.862ZM639.584 120.942C640.368 120.942 641.104 120.758 641.792 120.39C642.48 120.022 643.032 119.47 643.448 118.734C643.88 117.998 644.096 117.102 644.096 116.046C644.096 114.99 643.888 114.094 643.472 113.358C643.056 112.622 642.512 112.078 641.84 111.726C641.168 111.358 640.44 111.174 639.656 111.174C638.856 111.174 638.12 111.358 637.448 111.726C636.792 112.078 636.264 112.622 635.864 113.358C635.464 114.094 635.264 114.99 635.264 116.046C635.264 117.118 635.456 118.022 635.84 118.758C636.24 119.494 636.768 120.046 637.424 120.414C638.08 120.766 638.8 120.942 639.584 120.942ZM651.384 111.63C651.768 110.878 652.312 110.294 653.016 109.878C653.736 109.462 654.608 109.254 655.632 109.254V111.51H655.056C652.608 111.51 651.384 112.838 651.384 115.494V122.646H649.2V109.494H651.384V111.63ZM663.735 116.022C663.735 114.678 664.007 113.502 664.551 112.494C665.095 111.47 665.839 110.678 666.783 110.118C667.743 109.558 668.807 109.278 669.975 109.278C671.127 109.278 672.127 109.526 672.975 110.022C673.823 110.518 674.455 111.142 674.871 111.894V109.494H677.079V122.646H674.871V120.198C674.439 120.966 673.791 121.606 672.927 122.118C672.079 122.614 671.087 122.862 669.951 122.862C668.783 122.862 667.727 122.574 666.783 121.998C665.839 121.422 665.095 120.614 664.551 119.574C664.007 118.534 663.735 117.35 663.735 116.022ZM674.871 116.046C674.871 115.054 674.671 114.19 674.271 113.454C673.871 112.718 673.327 112.158 672.639 111.774C671.967 111.374 671.223 111.174 670.407 111.174C669.591 111.174 668.847 111.366 668.175 111.75C667.503 112.134 666.967 112.694 666.567 113.43C666.167 114.166 665.967 115.03 665.967 116.022C665.967 117.03 666.167 117.91 666.567 118.662C666.967 119.398 667.503 119.966 668.175 120.366C668.847 120.75 669.591 120.942 670.407 120.942C671.223 120.942 671.967 120.75 672.639 120.366C673.327 119.966 673.871 119.398 674.271 118.662C674.671 117.91 674.871 117.038 674.871 116.046ZM685.426 122.862C684.418 122.862 683.514 122.694 682.714 122.358C681.914 122.006 681.282 121.526 680.818 120.918C680.354 120.294 680.098 119.582 680.05 118.782H682.306C682.37 119.438 682.674 119.974 683.218 120.39C683.778 120.806 684.506 121.014 685.402 121.014C686.234 121.014 686.89 120.83 687.37 120.462C687.85 120.094 688.09 119.63 688.09 119.07C688.09 118.494 687.834 118.07 687.322 117.798C686.81 117.51 686.018 117.23 684.946 116.958C683.97 116.702 683.17 116.446 682.546 116.19C681.938 115.918 681.41 115.526 680.962 115.014C680.53 114.486 680.314 113.798 680.314 112.95C680.314 112.278 680.514 111.662 680.914 111.102C681.314 110.542 681.882 110.102 682.618 109.782C683.354 109.446 684.194 109.278 685.138 109.278C686.594 109.278 687.77 109.646 688.666 110.382C689.562 111.118 690.042 112.126 690.106 113.406H687.922C687.874 112.718 687.594 112.166 687.082 111.75C686.586 111.334 685.914 111.126 685.066 111.126C684.282 111.126 683.658 111.294 683.194 111.63C682.73 111.966 682.498 112.406 682.498 112.95C682.498 113.382 682.634 113.742 682.906 114.03C683.194 114.302 683.546 114.526 683.962 114.702C684.394 114.862 684.986 115.046 685.738 115.254C686.682 115.51 687.45 115.766 688.042 116.022C688.634 116.262 689.138 116.63 689.554 117.126C689.986 117.622 690.21 118.27 690.226 119.07C690.226 119.79 690.026 120.438 689.626 121.014C689.226 121.59 688.658 122.046 687.922 122.382C687.202 122.702 686.37 122.862 685.426 122.862ZM700.653 122.646L695.493 116.838V122.646H693.309V104.886H695.493V115.326L700.557 109.494H703.605L697.413 116.046L703.629 122.646H700.653ZM711.243 116.022C711.243 114.678 711.515 113.502 712.059 112.494C712.603 111.47 713.347 110.678 714.291 110.118C715.251 109.558 716.315 109.278 717.483 109.278C718.635 109.278 719.635 109.526 720.483 110.022C721.331 110.518 721.963 111.142 722.379 111.894V109.494H724.587V122.646H722.379V120.198C721.947 120.966 721.299 121.606 720.435 122.118C719.587 122.614 718.595 122.862 717.459 122.862C716.291 122.862 715.235 122.574 714.291 121.998C713.347 121.422 712.603 120.614 712.059 119.574C711.515 118.534 711.243 117.35 711.243 116.022ZM722.379 116.046C722.379 115.054 722.179 114.19 721.779 113.454C721.379 112.718 720.835 112.158 720.147 111.774C719.475 111.374 718.731 111.174 717.915 111.174C717.099 111.174 716.355 111.366 715.683 111.75C715.011 112.134 714.475 112.694 714.075 113.43C713.675 114.166 713.475 115.03 713.475 116.022C713.475 117.03 713.675 117.91 714.075 118.662C714.475 119.398 715.011 119.966 715.683 120.366C716.355 120.75 717.099 120.942 717.915 120.942C718.731 120.942 719.475 120.75 720.147 120.366C720.835 119.966 721.379 119.398 721.779 118.662C722.179 117.91 722.379 117.038 722.379 116.046ZM733.86 116.022C733.86 114.678 734.132 113.502 734.676 112.494C735.22 111.47 735.964 110.678 736.908 110.118C737.868 109.558 738.94 109.278 740.124 109.278C741.26 109.278 742.252 109.534 743.1 110.046C743.964 110.542 744.596 111.158 744.996 111.894V109.494H747.204V128.886H744.996V120.222C744.58 120.958 743.94 121.582 743.076 122.094C742.212 122.606 741.204 122.862 740.052 122.862C738.9 122.862 737.852 122.574 736.908 121.998C735.964 121.422 735.22 120.614 734.676 119.574C734.132 118.534 733.86 117.35 733.86 116.022ZM744.996 116.046C744.996 115.054 744.796 114.19 744.396 113.454C743.996 112.718 743.452 112.158 742.764 111.774C742.092 111.374 741.348 111.174 740.532 111.174C739.716 111.174 738.972 111.366 738.3 111.75C737.628 112.134 737.092 112.694 736.692 113.43C736.292 114.166 736.092 115.03 736.092 116.022C736.092 117.03 736.292 117.91 736.692 118.662C737.092 119.398 737.628 119.966 738.3 120.366C738.972 120.75 739.716 120.942 740.532 120.942C741.348 120.942 742.092 120.75 742.764 120.366C743.452 119.966 743.996 119.398 744.396 118.662C744.796 117.91 744.996 117.038 744.996 116.046ZM762.559 109.494V122.646H760.375V120.702C759.959 121.374 759.375 121.902 758.623 122.286C757.887 122.654 757.071 122.838 756.175 122.838C755.151 122.838 754.231 122.63 753.415 122.214C752.599 121.782 751.951 121.142 751.471 120.294C751.007 119.446 750.775 118.414 750.775 117.198V109.494H752.935V116.91C752.935 118.206 753.263 119.206 753.919 119.91C754.575 120.598 755.471 120.942 756.607 120.942C757.775 120.942 758.695 120.582 759.367 119.862C760.039 119.142 760.375 118.094 760.375 116.718V109.494H762.559ZM778.246 115.566C778.246 115.982 778.222 116.422 778.174 116.886H767.662C767.742 118.182 768.182 119.198 768.982 119.934C769.798 120.654 770.782 121.014 771.934 121.014C772.878 121.014 773.662 120.798 774.286 120.366C774.926 119.918 775.374 119.326 775.63 118.59H777.982C777.63 119.854 776.926 120.886 775.87 121.686C774.814 122.47 773.502 122.862 771.934 122.862C770.686 122.862 769.566 122.582 768.574 122.022C767.598 121.462 766.83 120.67 766.27 119.646C765.71 118.606 765.43 117.406 765.43 116.046C765.43 114.686 765.702 113.494 766.246 112.47C766.79 111.446 767.55 110.662 768.526 110.118C769.518 109.558 770.654 109.278 771.934 109.278C773.182 109.278 774.286 109.55 775.246 110.094C776.206 110.638 776.942 111.39 777.454 112.35C777.982 113.294 778.246 114.366 778.246 115.566ZM775.99 115.11C775.99 114.278 775.806 113.566 775.438 112.974C775.07 112.366 774.566 111.91 773.926 111.606C773.302 111.286 772.606 111.126 771.838 111.126C770.734 111.126 769.79 111.478 769.006 112.182C768.238 112.886 767.798 113.862 767.686 115.11H775.99ZM785.785 122.862C784.777 122.862 783.873 122.694 783.073 122.358C782.273 122.006 781.641 121.526 781.177 120.918C780.713 120.294 780.457 119.582 780.409 118.782H782.665C782.729 119.438 783.033 119.974 783.577 120.39C784.137 120.806 784.865 121.014 785.761 121.014C786.593 121.014 787.249 120.83 787.729 120.462C788.209 120.094 788.449 119.63 788.449 119.07C788.449 118.494 788.193 118.07 787.681 117.798C787.169 117.51 786.377 117.23 785.305 116.958C784.329 116.702 783.529 116.446 782.905 116.19C782.297 115.918 781.769 115.526 781.321 115.014C780.889 114.486 780.673 113.798 780.673 112.95C780.673 112.278 780.873 111.662 781.273 111.102C781.673 110.542 782.241 110.102 782.977 109.782C783.713 109.446 784.553 109.278 785.497 109.278C786.953 109.278 788.129 109.646 789.025 110.382C789.921 111.118 790.401 112.126 790.465 113.406H788.281C788.233 112.718 787.953 112.166 787.441 111.75C786.945 111.334 786.273 111.126 785.425 111.126C784.641 111.126 784.017 111.294 783.553 111.63C783.089 111.966 782.857 112.406 782.857 112.95C782.857 113.382 782.993 113.742 783.265 114.03C783.553 114.302 783.905 114.526 784.321 114.702C784.753 114.862 785.345 115.046 786.097 115.254C787.041 115.51 787.809 115.766 788.401 116.022C788.993 116.262 789.497 116.63 789.913 117.126C790.345 117.622 790.569 118.27 790.585 119.07C790.585 119.79 790.385 120.438 789.985 121.014C789.585 121.59 789.017 122.046 788.281 122.382C787.561 122.702 786.729 122.862 785.785 122.862ZM796.332 111.294V119.046C796.332 119.686 796.468 120.142 796.74 120.414C797.012 120.67 797.484 120.798 798.156 120.798H799.764V122.646H797.796C796.58 122.646 795.668 122.366 795.06 121.806C794.452 121.246 794.148 120.326 794.148 119.046V111.294H792.444V109.494H794.148V106.182H796.332V109.494H799.764V111.294H796.332ZM803.539 107.358C803.123 107.358 802.771 107.214 802.483 106.926C802.195 106.638 802.051 106.286 802.051 105.87C802.051 105.454 802.195 105.102 802.483 104.814C802.771 104.526 803.123 104.382 803.539 104.382C803.939 104.382 804.275 104.526 804.547 104.814C804.835 105.102 804.979 105.454 804.979 105.87C804.979 106.286 804.835 106.638 804.547 106.926C804.275 107.214 803.939 107.358 803.539 107.358ZM804.595 109.494V122.646H802.411V109.494H804.595ZM814.053 122.862C812.821 122.862 811.701 122.582 810.693 122.022C809.701 121.462 808.917 120.67 808.341 119.646C807.781 118.606 807.501 117.406 807.501 116.046C807.501 114.702 807.789 113.518 808.365 112.494C808.957 111.454 809.757 110.662 810.765 110.118C811.773 109.558 812.901 109.278 814.149 109.278C815.397 109.278 816.525 109.558 817.533 110.118C818.541 110.662 819.333 111.446 819.909 112.47C820.501 113.494 820.797 114.686 820.797 116.046C820.797 117.406 820.493 118.606 819.885 119.646C819.293 120.67 818.485 121.462 817.461 122.022C816.437 122.582 815.301 122.862 814.053 122.862ZM814.053 120.942C814.837 120.942 815.573 120.758 816.261 120.39C816.949 120.022 817.501 119.47 817.917 118.734C818.349 117.998 818.565 117.102 818.565 116.046C818.565 114.99 818.357 114.094 817.941 113.358C817.525 112.622 816.981 112.078 816.309 111.726C815.637 111.358 814.909 111.174 814.125 111.174C813.325 111.174 812.589 111.358 811.917 111.726C811.261 112.078 810.733 112.622 810.333 113.358C809.933 114.094 809.733 114.99 809.733 116.046C809.733 117.118 809.925 118.022 810.309 118.758C810.709 119.494 811.237 120.046 811.893 120.414C812.549 120.766 813.269 120.942 814.053 120.942ZM830.076 109.254C831.676 109.254 832.972 109.742 833.964 110.718C834.956 111.678 835.452 113.07 835.452 114.894V122.646H833.292V115.206C833.292 113.894 832.964 112.894 832.308 112.206C831.652 111.502 830.756 111.15 829.62 111.15C828.468 111.15 827.548 111.51 826.86 112.23C826.188 112.95 825.852 113.998 825.852 115.374V122.646H823.668V109.494H825.852V111.366C826.284 110.694 826.868 110.174 827.604 109.806C828.356 109.438 829.18 109.254 830.076 109.254ZM843.292 105.702C844.876 105.702 846.156 106.15 847.132 107.046C848.108 107.942 848.596 109.142 848.596 110.646C848.596 112.326 848.076 113.574 847.036 114.39C845.996 115.19 844.588 115.59 842.812 115.59L842.74 117.87H840.844L840.748 114.078H841.444C843.028 114.078 844.268 113.838 845.164 113.358C846.06 112.878 846.508 111.974 846.508 110.646C846.508 109.686 846.22 108.926 845.644 108.366C845.068 107.806 844.292 107.526 843.316 107.526C842.324 107.526 841.54 107.798 840.964 108.342C840.404 108.87 840.124 109.598 840.124 110.526H838.06C838.06 109.566 838.276 108.726 838.708 108.006C839.14 107.27 839.748 106.702 840.532 106.302C841.332 105.902 842.252 105.702 843.292 105.702ZM841.78 122.79C841.364 122.79 841.012 122.646 840.724 122.358C840.436 122.07 840.292 121.718 840.292 121.302C840.292 120.886 840.436 120.534 840.724 120.246C841.012 119.958 841.364 119.814 841.78 119.814C842.18 119.814 842.516 119.958 842.788 120.246C843.076 120.534 843.22 120.886 843.22 121.302C843.22 121.718 843.076 122.07 842.788 122.358C842.516 122.646 842.18 122.79 841.78 122.79Z" fill="white"/>
<rect x="592" y="46" width="298" height="40" fill="#60D669"/>
<path d="M607.032 67.4315C607.032 66.0715 607.304 64.8875 607.848 63.8795C608.392 62.8555 609.144 62.0635 610.104 61.5035C611.08 60.9435 612.192 60.6635 613.44 60.6635C615.056 60.6635 616.384 61.0555 617.424 61.8395C618.48 62.6235 619.176 63.7115 619.512 65.1035H617.16C616.936 64.3035 616.496 63.6715 615.84 63.2075C615.2 62.7435 614.4 62.5115 613.44 62.5115C612.192 62.5115 611.184 62.9435 610.416 63.8075C609.648 64.6555 609.264 65.8635 609.264 67.4315C609.264 69.0155 609.648 70.2395 610.416 71.1035C611.184 71.9675 612.192 72.3995 613.44 72.3995C614.4 72.3995 615.2 72.1755 615.84 71.7275C616.48 71.2795 616.92 70.6395 617.16 69.8075H619.512C619.16 71.1515 618.456 72.2315 617.4 73.0475C616.344 73.8475 615.024 74.2475 613.44 74.2475C612.192 74.2475 611.08 73.9675 610.104 73.4075C609.144 72.8475 608.392 72.0555 607.848 71.0315C607.304 70.0075 607.032 68.8075 607.032 67.4315ZM628.954 60.6395C629.946 60.6395 630.842 60.8555 631.642 61.2875C632.442 61.7035 633.066 62.3355 633.514 63.1835C633.978 64.0315 634.21 65.0635 634.21 66.2795V74.0315H632.05V66.5915C632.05 65.2795 631.722 64.2795 631.066 63.5915C630.41 62.8875 629.514 62.5355 628.378 62.5355C627.226 62.5355 626.306 62.8955 625.618 63.6155C624.946 64.3355 624.61 65.3835 624.61 66.7595V74.0315H622.426V56.2715H624.61V62.7515C625.042 62.0795 625.634 61.5595 626.386 61.1915C627.154 60.8235 628.01 60.6395 628.954 60.6395ZM649.778 66.9515C649.778 67.3675 649.754 67.8075 649.706 68.2715H639.194C639.274 69.5675 639.714 70.5835 640.514 71.3195C641.33 72.0395 642.314 72.3995 643.466 72.3995C644.41 72.3995 645.194 72.1835 645.818 71.7515C646.458 71.3035 646.906 70.7115 647.162 69.9755H649.514C649.162 71.2395 648.458 72.2715 647.402 73.0715C646.346 73.8555 645.034 74.2475 643.466 74.2475C642.218 74.2475 641.098 73.9675 640.106 73.4075C639.13 72.8475 638.362 72.0555 637.802 71.0315C637.242 69.9915 636.962 68.7915 636.962 67.4315C636.962 66.0715 637.234 64.8795 637.778 63.8555C638.322 62.8315 639.082 62.0475 640.058 61.5035C641.05 60.9435 642.186 60.6635 643.466 60.6635C644.714 60.6635 645.818 60.9355 646.778 61.4795C647.738 62.0235 648.474 62.7755 648.986 63.7355C649.514 64.6795 649.778 65.7515 649.778 66.9515ZM647.522 66.4955C647.522 65.6635 647.338 64.9515 646.97 64.3595C646.602 63.7515 646.098 63.2955 645.458 62.9915C644.834 62.6715 644.138 62.5115 643.37 62.5115C642.266 62.5115 641.322 62.8635 640.538 63.5675C639.77 64.2715 639.33 65.2475 639.218 66.4955H647.522ZM651.845 67.4315C651.845 66.0715 652.117 64.8875 652.661 63.8795C653.205 62.8555 653.957 62.0635 654.917 61.5035C655.893 60.9435 657.005 60.6635 658.253 60.6635C659.869 60.6635 661.197 61.0555 662.237 61.8395C663.293 62.6235 663.989 63.7115 664.325 65.1035H661.973C661.749 64.3035 661.309 63.6715 660.653 63.2075C660.013 62.7435 659.213 62.5115 658.253 62.5115C657.005 62.5115 655.997 62.9435 655.229 63.8075C654.461 64.6555 654.077 65.8635 654.077 67.4315C654.077 69.0155 654.461 70.2395 655.229 71.1035C655.997 71.9675 657.005 72.3995 658.253 72.3995C659.213 72.3995 660.013 72.1755 660.653 71.7275C661.293 71.2795 661.733 70.6395 661.973 69.8075H664.325C663.973 71.1515 663.269 72.2315 662.213 73.0475C661.157 73.8475 659.837 74.2475 658.253 74.2475C657.005 74.2475 655.893 73.9675 654.917 73.4075C653.957 72.8475 653.205 72.0555 652.661 71.0315C652.117 70.0075 651.845 68.8075 651.845 67.4315ZM674.583 74.0315L669.423 68.2235V74.0315H667.239V56.2715H669.423V66.7115L674.487 60.8795H677.535L671.343 67.4315L677.559 74.0315H674.583ZM688.173 63.3035C688.605 62.5515 689.245 61.9275 690.093 61.4315C690.957 60.9195 691.957 60.6635 693.093 60.6635C694.261 60.6635 695.317 60.9435 696.261 61.5035C697.221 62.0635 697.973 62.8555 698.517 63.8795C699.061 64.8875 699.333 66.0635 699.333 67.4075C699.333 68.7355 699.061 69.9195 698.517 70.9595C697.973 71.9995 697.221 72.8075 696.261 73.3835C695.317 73.9595 694.261 74.2475 693.093 74.2475C691.973 74.2475 690.981 73.9995 690.117 73.5035C689.269 72.9915 688.621 72.3595 688.173 71.6075V80.2715H685.989V60.8795H688.173V63.3035ZM697.101 67.4075C697.101 66.4155 696.901 65.5515 696.501 64.8155C696.101 64.0795 695.557 63.5195 694.869 63.1355C694.197 62.7515 693.453 62.5595 692.637 62.5595C691.837 62.5595 691.093 62.7595 690.405 63.1595C689.733 63.5435 689.189 64.1115 688.773 64.8635C688.373 65.5995 688.173 66.4555 688.173 67.4315C688.173 68.4235 688.373 69.2955 688.773 70.0475C689.189 70.7835 689.733 71.3515 690.405 71.7515C691.093 72.1355 691.837 72.3275 692.637 72.3275C693.453 72.3275 694.197 72.1355 694.869 71.7515C695.557 71.3515 696.101 70.7835 696.501 70.0475C696.901 69.2955 697.101 68.4155 697.101 67.4075ZM704.391 56.2715V74.0315H702.207V56.2715H704.391ZM713.85 74.2475C712.618 74.2475 711.498 73.9675 710.49 73.4075C709.498 72.8475 708.714 72.0555 708.138 71.0315C707.578 69.9915 707.298 68.7915 707.298 67.4315C707.298 66.0875 707.586 64.9035 708.162 63.8795C708.754 62.8395 709.554 62.0475 710.562 61.5035C711.57 60.9435 712.698 60.6635 713.946 60.6635C715.194 60.6635 716.322 60.9435 717.33 61.5035C718.338 62.0475 719.13 62.8315 719.706 63.8555C720.298 64.8795 720.594 66.0715 720.594 67.4315C720.594 68.7915 720.29 69.9915 719.682 71.0315C719.09 72.0555 718.282 72.8475 717.258 73.4075C716.234 73.9675 715.098 74.2475 713.85 74.2475ZM713.85 72.3275C714.634 72.3275 715.37 72.1435 716.058 71.7755C716.746 71.4075 717.298 70.8555 717.714 70.1195C718.146 69.3835 718.362 68.4875 718.362 67.4315C718.362 66.3755 718.154 65.4795 717.738 64.7435C717.322 64.0075 716.778 63.4635 716.106 63.1115C715.434 62.7435 714.706 62.5595 713.922 62.5595C713.122 62.5595 712.386 62.7435 711.714 63.1115C711.058 63.4635 710.53 64.0075 710.13 64.7435C709.73 65.4795 709.53 66.3755 709.53 67.4315C709.53 68.5035 709.722 69.4075 710.106 70.1435C710.506 70.8795 711.034 71.4315 711.69 71.7995C712.346 72.1515 713.066 72.3275 713.85 72.3275ZM726.129 62.6795V70.4315C726.129 71.0715 726.265 71.5275 726.537 71.7995C726.809 72.0555 727.281 72.1835 727.953 72.1835H729.561V74.0315H727.593C726.377 74.0315 725.465 73.7515 724.857 73.1915C724.249 72.6315 723.945 71.7115 723.945 70.4315V62.6795H722.241V60.8795H723.945V57.5675H726.129V60.8795H729.561V62.6795H726.129ZM737.79 67.4075C737.79 66.0635 738.062 64.8875 738.606 63.8795C739.15 62.8555 739.894 62.0635 740.838 61.5035C741.798 60.9435 742.862 60.6635 744.03 60.6635C745.182 60.6635 746.182 60.9115 747.03 61.4075C747.878 61.9035 748.51 62.5275 748.926 63.2795V60.8795H751.134V74.0315H748.926V71.5835C748.494 72.3515 747.846 72.9915 746.982 73.5035C746.134 73.9995 745.142 74.2475 744.006 74.2475C742.838 74.2475 741.782 73.9595 740.838 73.3835C739.894 72.8075 739.15 71.9995 738.606 70.9595C738.062 69.9195 737.79 68.7355 737.79 67.4075ZM748.926 67.4315C748.926 66.4395 748.726 65.5755 748.326 64.8395C747.926 64.1035 747.382 63.5435 746.694 63.1595C746.022 62.7595 745.278 62.5595 744.462 62.5595C743.646 62.5595 742.902 62.7515 742.23 63.1355C741.558 63.5195 741.022 64.0795 740.622 64.8155C740.222 65.5515 740.022 66.4155 740.022 67.4075C740.022 68.4155 740.222 69.2955 740.622 70.0475C741.022 70.7835 741.558 71.3515 742.23 71.7515C742.902 72.1355 743.646 72.3275 744.462 72.3275C745.278 72.3275 746.022 72.1355 746.694 71.7515C747.382 71.3515 747.926 70.7835 748.326 70.0475C748.726 69.2955 748.926 68.4235 748.926 67.4315ZM759.721 72.0155L763.801 60.8795H766.129L760.969 74.0315H758.425L753.265 60.8795H755.617L759.721 72.0155ZM767.462 67.4075C767.462 66.0635 767.734 64.8875 768.278 63.8795C768.822 62.8555 769.566 62.0635 770.51 61.5035C771.47 60.9435 772.534 60.6635 773.702 60.6635C774.854 60.6635 775.854 60.9115 776.702 61.4075C777.55 61.9035 778.182 62.5275 778.598 63.2795V60.8795H780.806V74.0315H778.598V71.5835C778.166 72.3515 777.518 72.9915 776.654 73.5035C775.806 73.9995 774.814 74.2475 773.678 74.2475C772.51 74.2475 771.454 73.9595 770.51 73.3835C769.566 72.8075 768.822 71.9995 768.278 70.9595C767.734 69.9195 767.462 68.7355 767.462 67.4075ZM778.598 67.4315C778.598 66.4395 778.398 65.5755 777.998 64.8395C777.598 64.1035 777.054 63.5435 776.366 63.1595C775.694 62.7595 774.95 62.5595 774.134 62.5595C773.318 62.5595 772.574 62.7515 771.902 63.1355C771.23 63.5195 770.694 64.0795 770.294 64.8155C769.894 65.5515 769.694 66.4155 769.694 67.4075C769.694 68.4155 769.894 69.2955 770.294 70.0475C770.694 70.7835 771.23 71.3515 771.902 71.7515C772.574 72.1355 773.318 72.3275 774.134 72.3275C774.95 72.3275 775.694 72.1355 776.366 71.7515C777.054 71.3515 777.598 70.7835 777.998 70.0475C778.398 69.2955 778.598 68.4235 778.598 67.4315ZM785.624 58.7435C785.208 58.7435 784.856 58.5995 784.568 58.3115C784.28 58.0235 784.136 57.6715 784.136 57.2555C784.136 56.8395 784.28 56.4875 784.568 56.1995C784.856 55.9115 785.208 55.7675 785.624 55.7675C786.024 55.7675 786.36 55.9115 786.632 56.1995C786.92 56.4875 787.064 56.8395 787.064 57.2555C787.064 57.6715 786.92 58.0235 786.632 58.3115C786.36 58.5995 786.024 58.7435 785.624 58.7435ZM786.68 60.8795V74.0315H784.496V60.8795H786.68ZM792.587 56.2715V74.0315H790.403V56.2715H792.587ZM795.493 67.4075C795.493 66.0635 795.765 64.8875 796.309 63.8795C796.853 62.8555 797.597 62.0635 798.541 61.5035C799.501 60.9435 800.565 60.6635 801.733 60.6635C802.885 60.6635 803.885 60.9115 804.733 61.4075C805.581 61.9035 806.213 62.5275 806.629 63.2795V60.8795H808.837V74.0315H806.629V71.5835C806.197 72.3515 805.549 72.9915 804.685 73.5035C803.837 73.9995 802.845 74.2475 801.709 74.2475C800.541 74.2475 799.485 73.9595 798.541 73.3835C797.597 72.8075 796.853 71.9995 796.309 70.9595C795.765 69.9195 795.493 68.7355 795.493 67.4075ZM806.629 67.4315C806.629 66.4395 806.429 65.5755 806.029 64.8395C805.629 64.1035 805.085 63.5435 804.397 63.1595C803.725 62.7595 802.981 62.5595 802.165 62.5595C801.349 62.5595 800.605 62.7515 799.933 63.1355C799.261 63.5195 798.725 64.0795 798.325 64.8155C797.925 65.5515 797.725 66.4155 797.725 67.4075C797.725 68.4155 797.925 69.2955 798.325 70.0475C798.725 70.7835 799.261 71.3515 799.933 71.7515C800.605 72.1355 801.349 72.3275 802.165 72.3275C802.981 72.3275 803.725 72.1355 804.397 71.7515C805.085 71.3515 805.629 70.7835 806.029 70.0475C806.429 69.2955 806.629 68.4235 806.629 67.4315ZM814.712 63.3275C815.16 62.5435 815.816 61.9035 816.68 61.4075C817.544 60.9115 818.528 60.6635 819.632 60.6635C820.816 60.6635 821.88 60.9435 822.824 61.5035C823.768 62.0635 824.512 62.8555 825.056 63.8795C825.6 64.8875 825.872 66.0635 825.872 67.4075C825.872 68.7355 825.6 69.9195 825.056 70.9595C824.512 71.9995 823.76 72.8075 822.8 73.3835C821.856 73.9595 820.8 74.2475 819.632 74.2475C818.496 74.2475 817.496 73.9995 816.632 73.5035C815.784 73.0075 815.144 72.3755 814.712 71.6075V74.0315H812.528V56.2715H814.712V63.3275ZM823.64 67.4075C823.64 66.4155 823.44 65.5515 823.04 64.8155C822.64 64.0795 822.096 63.5195 821.408 63.1355C820.736 62.7515 819.992 62.5595 819.176 62.5595C818.376 62.5595 817.632 62.7595 816.944 63.1595C816.272 63.5435 815.728 64.1115 815.312 64.8635C814.912 65.5995 814.712 66.4555 814.712 67.4315C814.712 68.4235 814.912 69.2955 815.312 70.0475C815.728 70.7835 816.272 71.3515 816.944 71.7515C817.632 72.1355 818.376 72.3275 819.176 72.3275C819.992 72.3275 820.736 72.1355 821.408 71.7515C822.096 71.3515 822.64 70.7835 823.04 70.0475C823.44 69.2955 823.64 68.4155 823.64 67.4075ZM829.874 58.7435C829.458 58.7435 829.106 58.5995 828.818 58.3115C828.53 58.0235 828.386 57.6715 828.386 57.2555C828.386 56.8395 828.53 56.4875 828.818 56.1995C829.106 55.9115 829.458 55.7675 829.874 55.7675C830.274 55.7675 830.61 55.9115 830.882 56.1995C831.17 56.4875 831.314 56.8395 831.314 57.2555C831.314 57.6715 831.17 58.0235 830.882 58.3115C830.61 58.5995 830.274 58.7435 829.874 58.7435ZM830.93 60.8795V74.0315H828.746V60.8795H830.93ZM836.837 56.2715V74.0315H834.653V56.2715H836.837ZM841.687 58.7435C841.271 58.7435 840.919 58.5995 840.631 58.3115C840.343 58.0235 840.199 57.6715 840.199 57.2555C840.199 56.8395 840.343 56.4875 840.631 56.1995C840.919 55.9115 841.271 55.7675 841.687 55.7675C842.087 55.7675 842.423 55.9115 842.695 56.1995C842.983 56.4875 843.127 56.8395 843.127 57.2555C843.127 57.6715 842.983 58.0235 842.695 58.3115C842.423 58.5995 842.087 58.7435 841.687 58.7435ZM842.743 60.8795V74.0315H840.559V60.8795H842.743ZM849.129 62.6795V70.4315C849.129 71.0715 849.265 71.5275 849.537 71.7995C849.809 72.0555 850.281 72.1835 850.953 72.1835H852.561V74.0315H850.593C849.377 74.0315 848.465 73.7515 847.857 73.1915C847.249 72.6315 846.945 71.7115 846.945 70.4315V62.6795H845.241V60.8795H846.945V57.5675H849.129V60.8795H852.561V62.6795H849.129ZM866.535 60.8795L858.615 80.2235H856.359L858.951 73.8875L853.647 60.8795H856.071L860.199 71.5355L864.279 60.8795H866.535ZM873.003 57.0875C874.587 57.0875 875.867 57.5355 876.843 58.4315C877.819 59.3275 878.307 60.5275 878.307 62.0315C878.307 63.7115 877.787 64.9595 876.747 65.7755C875.707 66.5755 874.299 66.9755 872.523 66.9755L872.451 69.2555H870.555L870.459 65.4635H871.155C872.739 65.4635 873.979 65.2235 874.875 64.7435C875.771 64.2635 876.219 63.3595 876.219 62.0315C876.219 61.0715 875.931 60.3115 875.355 59.7515C874.779 59.1915 874.003 58.9115 873.027 58.9115C872.035 58.9115 871.251 59.1835 870.675 59.7275C870.115 60.2555 869.835 60.9835 869.835 61.9115H867.771C867.771 60.9515 867.987 60.1115 868.419 59.3915C868.851 58.6555 869.459 58.0875 870.243 57.6875C871.043 57.2875 871.963 57.0875 873.003 57.0875ZM871.491 74.1755C871.075 74.1755 870.723 74.0315 870.435 73.7435C870.147 73.4555 870.003 73.1035 870.003 72.6875C870.003 72.2715 870.147 71.9195 870.435 71.6315C870.723 71.3435 871.075 71.1995 871.491 71.1995C871.891 71.1995 872.227 71.3435 872.499 71.6315C872.787 71.9195 872.931 72.2715 872.931 72.6875C872.931 73.1035 872.787 73.4555 872.499 73.7435C872.227 74.0315 871.891 74.1755 871.491 74.1755Z" fill="black"/>
<path d="M28.96 73H1.4V71.4C2.28 71.3733 3 71.2933 3.56 71.16C4.12 71.0267 4.54667 70.8 4.84 70.48C5.13333 70.16 5.33333 69.7067 5.44 69.12C5.54667 68.5333 5.6 67.7733 5.6 66.84V48.36C5.6 47.4267 5.54667 46.68 5.44 46.12C5.36 45.5333 5.18667 45.08 4.92 44.76C4.65333 44.4133 4.26667 44.1867 3.76 44.08C3.28 43.9467 2.64 43.8533 1.84 43.8V42.2H15.64V43.8C14.7333 43.8267 14 43.9067 13.44 44.04C12.9067 44.1733 12.4933 44.4133 12.2 44.76C11.9067 45.1067 11.7067 45.5867 11.6 46.2C11.52 46.8133 11.48 47.6267 11.48 48.64V65.4C11.48 66.52 11.5867 67.44 11.8 68.16C12.04 68.8533 12.44 69.4 13 69.8C13.56 70.1733 14.3067 70.44 15.24 70.6C16.1733 70.7333 17.3333 70.8 18.72 70.8C20.2667 70.8 21.56 70.7067 22.6 70.52C23.64 70.3333 24.5067 69.9867 25.2 69.48C25.92 68.9467 26.4933 68.24 26.92 67.36C27.3467 66.48 27.7067 65.3333 28 63.92H29.6L28.96 73ZM43.3153 51.4C44.9153 51.4 46.422 51.68 47.8353 52.24C49.2753 52.7733 50.5286 53.52 51.5953 54.48C52.6886 55.44 53.542 56.5867 54.1553 57.92C54.7953 59.2267 55.1153 60.6667 55.1153 62.24C55.1153 63.8667 54.7953 65.36 54.1553 66.72C53.542 68.08 52.6886 69.2533 51.5953 70.24C50.5286 71.2267 49.2753 72 47.8353 72.56C46.422 73.12 44.9153 73.4 43.3153 73.4C41.742 73.4 40.2486 73.1333 38.8353 72.6C37.422 72.04 36.182 71.2667 35.1153 70.28C34.0486 69.2933 33.2086 68.12 32.5953 66.76C31.982 65.3733 31.6753 63.8667 31.6753 62.24C31.6753 60.6667 31.982 59.2133 32.5953 57.88C33.2086 56.5467 34.0486 55.4 35.1153 54.44C36.182 53.48 37.422 52.7333 38.8353 52.2C40.2486 51.6667 41.742 51.4 43.3153 51.4ZM43.3153 53.72C42.5153 53.72 41.782 53.9333 41.1153 54.36C40.4486 54.76 39.8753 55.3333 39.3953 56.08C38.942 56.8267 38.582 57.7333 38.3153 58.8C38.0753 59.84 37.9553 61 37.9553 62.28C37.9553 63.6133 38.0753 64.8133 38.3153 65.88C38.582 66.9467 38.942 67.8533 39.3953 68.6C39.8753 69.3467 40.4353 69.9333 41.0753 70.36C41.742 70.76 42.4886 70.96 43.3153 70.96C44.142 70.96 44.8886 70.76 45.5553 70.36C46.2486 69.9333 46.8353 69.3467 47.3153 68.6C47.7953 67.8267 48.1686 66.9067 48.4353 65.84C48.702 64.7733 48.8353 63.5867 48.8353 62.28C48.8353 61 48.702 59.84 48.4353 58.8C48.1686 57.76 47.7953 56.8667 47.3153 56.12C46.8353 55.3467 46.2486 54.76 45.5553 54.36C44.8886 53.9333 44.142 53.72 43.3153 53.72ZM69.7216 51.4C71.3216 51.4 72.8282 51.68 74.2416 52.24C75.6816 52.7733 76.9349 53.52 78.0016 54.48C79.0949 55.44 79.9482 56.5867 80.5616 57.92C81.2016 59.2267 81.5216 60.6667 81.5216 62.24C81.5216 63.8667 81.2016 65.36 80.5616 66.72C79.9482 68.08 79.0949 69.2533 78.0016 70.24C76.9349 71.2267 75.6816 72 74.2416 72.56C72.8282 73.12 71.3216 73.4 69.7216 73.4C68.1482 73.4 66.6549 73.1333 65.2416 72.6C63.8282 72.04 62.5882 71.2667 61.5216 70.28C60.4549 69.2933 59.6149 68.12 59.0016 66.76C58.3882 65.3733 58.0816 63.8667 58.0816 62.24C58.0816 60.6667 58.3882 59.2133 59.0016 57.88C59.6149 56.5467 60.4549 55.4 61.5216 54.44C62.5882 53.48 63.8282 52.7333 65.2416 52.2C66.6549 51.6667 68.1482 51.4 69.7216 51.4ZM69.7216 53.72C68.9216 53.72 68.1882 53.9333 67.5216 54.36C66.8549 54.76 66.2816 55.3333 65.8016 56.08C65.3482 56.8267 64.9882 57.7333 64.7216 58.8C64.4816 59.84 64.3616 61 64.3616 62.28C64.3616 63.6133 64.4816 64.8133 64.7216 65.88C64.9882 66.9467 65.3482 67.8533 65.8016 68.6C66.2816 69.3467 66.8416 69.9333 67.4816 70.36C68.1482 70.76 68.8949 70.96 69.7216 70.96C70.5482 70.96 71.2949 70.76 71.9616 70.36C72.6549 69.9333 73.2416 69.3467 73.7216 68.6C74.2016 67.8267 74.5749 66.9067 74.8416 65.84C75.1082 64.7733 75.2416 63.5867 75.2416 62.28C75.2416 61 75.1082 59.84 74.8416 58.8C74.5749 57.76 74.2016 56.8667 73.7216 56.12C73.2416 55.3467 72.6549 54.76 71.9616 54.36C71.2949 53.9333 70.5482 53.72 69.7216 53.72ZM97.3278 71.4C98.1811 71.4 98.7811 71.3733 99.1278 71.32C99.4745 71.24 99.6478 71.0933 99.6478 70.88C99.6478 70.72 99.4611 70.3333 99.0878 69.72C98.7411 69.08 98.2878 68.3467 97.7278 67.52L94.6878 62.96L92.6878 64.88V66.44C92.6878 67.48 92.7278 68.32 92.8078 68.96C92.8878 69.6 93.0211 70.1067 93.2078 70.48C93.4211 70.8267 93.7011 71.0667 94.0478 71.2C94.4211 71.3333 94.8878 71.4 95.4478 71.4V73H83.6478V71.4C84.3945 71.3733 84.9945 71.2933 85.4478 71.16C85.9011 71.0267 86.2611 70.8 86.5278 70.48C86.7945 70.1333 86.9678 69.6667 87.0478 69.08C87.1545 68.4667 87.2078 67.68 87.2078 66.72V49.76C87.2078 48.1333 87.1811 46.8533 87.1278 45.92C87.0745 44.9867 86.9278 44.2933 86.6878 43.84C86.4745 43.36 86.1278 43.0667 85.6478 42.96C85.1945 42.8533 84.5678 42.8 83.7678 42.8V41.32L92.6878 39.8V62.04L96.5278 58.4C97.9145 57.0933 98.9011 56.12 99.4878 55.48C100.074 54.8133 100.368 54.3333 100.368 54.04C100.368 53.8 100.114 53.64 99.6078 53.56C99.1278 53.4533 98.2211 53.4 96.8878 53.4V51.8H107.808V53.4C106.794 53.4 105.901 53.5733 105.128 53.92C104.354 54.2667 103.514 54.8667 102.608 55.72L98.7278 59.36L105.648 69.16C106.261 70.0133 106.861 70.6 107.448 70.92C108.034 71.24 108.808 71.4 109.768 71.4V73H97.3278V71.4ZM119.85 66.44C119.85 67.5067 119.89 68.36 119.97 69C120.05 69.64 120.21 70.1333 120.45 70.48C120.69 70.8267 121.037 71.0667 121.49 71.2C121.944 71.3067 122.557 71.3733 123.33 71.4V73H110.73V71.4C111.477 71.3733 112.077 71.2933 112.53 71.16C113.01 71 113.37 70.76 113.61 70.44C113.877 70.0933 114.05 69.6267 114.13 69.04C114.237 68.4267 114.29 67.6533 114.29 66.72V61.8C114.29 60.2533 114.264 58.9867 114.21 58C114.157 56.9867 114.09 56.2933 114.01 55.92C113.877 55.2533 113.57 54.8133 113.09 54.6C112.637 54.3867 111.797 54.28 110.57 54.28V52.92L119.85 51.4V66.44ZM113.97 42.92C113.97 42.04 114.264 41.3067 114.85 40.72C115.464 40.1067 116.197 39.8 117.05 39.8C117.93 39.8 118.664 40.1067 119.25 40.72C119.864 41.3067 120.17 42.04 120.17 42.92C120.17 43.7733 119.864 44.5067 119.25 45.12C118.664 45.7067 117.93 46 117.05 46C116.197 46 115.464 45.7067 114.85 45.12C114.264 44.5067 113.97 43.7733 113.97 42.92ZM134.303 66.48C134.303 67.5733 134.33 68.44 134.383 69.08C134.463 69.6933 134.61 70.1733 134.823 70.52C135.063 70.84 135.41 71.0533 135.863 71.16C136.343 71.2667 136.983 71.3467 137.783 71.4V73H125.183V71.4C125.957 71.3467 126.57 71.2667 127.023 71.16C127.503 71.0533 127.863 70.84 128.103 70.52C128.37 70.2 128.543 69.7467 128.623 69.16C128.703 68.5733 128.743 67.7733 128.743 66.76V61.76C128.743 60.1867 128.717 58.92 128.663 57.96C128.61 56.9733 128.543 56.3067 128.463 55.96C128.383 55.6133 128.277 55.3333 128.143 55.12C128.01 54.88 127.81 54.7067 127.543 54.6C127.277 54.4667 126.943 54.3867 126.543 54.36C126.143 54.3067 125.637 54.28 125.023 54.28V52.92L132.743 51.4L133.263 54.92H133.423C134.303 53.8 135.343 52.9333 136.543 52.32C137.743 51.7067 139.063 51.4 140.503 51.4C142.21 51.4 143.583 51.64 144.623 52.12C145.69 52.5733 146.637 53.3467 147.463 54.44C147.917 55.0533 148.317 55.8533 148.663 56.84C149.01 57.8 149.183 59.1333 149.183 60.84V66.48C149.183 67.5733 149.21 68.44 149.263 69.08C149.343 69.6933 149.49 70.1733 149.703 70.52C149.943 70.84 150.29 71.0533 150.743 71.16C151.197 71.2667 151.81 71.3467 152.583 71.4V73H140.063V71.4C140.863 71.3733 141.49 71.3067 141.943 71.2C142.423 71.0667 142.783 70.84 143.023 70.52C143.263 70.2 143.423 69.7467 143.503 69.16C143.583 68.5467 143.623 67.7467 143.623 66.76V61.32C143.623 59.96 143.543 58.8133 143.383 57.88C143.223 56.9467 142.957 56.2 142.583 55.64C142.237 55.0533 141.77 54.64 141.183 54.4C140.597 54.1333 139.863 54 138.983 54C138.13 54 137.397 54.24 136.783 54.72C136.17 55.2 135.637 55.8667 135.183 56.72C134.943 57.2 134.73 57.8267 134.543 58.6C134.383 59.3467 134.303 60.1333 134.303 60.96V66.48ZM162.206 68.68C162.926 68.7333 163.553 68.7867 164.086 68.84C164.646 68.8933 165.166 68.96 165.646 69.04C166.153 69.0933 166.646 69.16 167.126 69.24C167.633 69.2933 168.166 69.36 168.726 69.44C170.806 69.7333 172.433 70.52 173.606 71.8C174.806 73.0533 175.406 74.6133 175.406 76.48C175.406 78.7467 174.473 80.4667 172.606 81.64C170.739 82.8133 167.993 83.4 164.366 83.4C161.033 83.4 158.459 82.9067 156.646 81.92C154.859 80.96 153.966 79.5867 153.966 77.8C153.966 76.4133 154.326 75.36 155.046 74.64C155.766 73.9467 156.673 73.6 157.766 73.6C158.459 73.6 159.126 73.7333 159.766 74C160.433 74.2933 160.993 74.7067 161.446 75.24C160.753 75.3733 160.179 75.68 159.726 76.16C159.299 76.6667 159.086 77.2533 159.086 77.92C159.086 78.9867 159.553 79.8 160.486 80.36C161.446 80.9467 162.846 81.24 164.686 81.24C168.686 81.24 170.686 79.9733 170.686 77.44C170.686 76.5333 170.379 75.7467 169.766 75.08C169.179 74.44 168.326 74.0533 167.206 73.92L160.206 72.96C157.246 72.56 155.766 71.24 155.766 69C155.766 67.9067 156.113 67.0133 156.806 66.32C157.526 65.6267 158.539 65.1467 159.846 64.88V64.72C159.233 64.48 158.673 64.1467 158.166 63.72C157.686 63.2933 157.259 62.8 156.886 62.24C156.513 61.68 156.219 61.08 156.006 60.44C155.819 59.7733 155.726 59.0933 155.726 58.4C155.726 57.4133 155.926 56.4933 156.326 55.64C156.753 54.76 157.326 54.0133 158.046 53.4C158.793 52.7867 159.659 52.3067 160.646 51.96C161.659 51.5867 162.753 51.4 163.926 51.4C165.073 51.4 166.193 51.5733 167.286 51.92C168.379 52.2667 169.313 52.7467 170.086 53.36C170.699 52.9867 171.233 52.68 171.686 52.44C172.139 52.1733 172.553 51.9733 172.926 51.84C173.326 51.68 173.686 51.5733 174.006 51.52C174.326 51.44 174.646 51.4 174.966 51.4C175.979 51.4 176.793 51.6267 177.406 52.08C178.046 52.5333 178.366 53.1333 178.366 53.88C178.366 54.44 178.193 54.9067 177.846 55.28C177.499 55.6267 177.046 55.8 176.486 55.8C176.086 55.8 175.766 55.72 175.526 55.56C175.286 55.3733 175.046 55.1733 174.806 54.96C174.593 54.72 174.366 54.52 174.126 54.36C173.886 54.1733 173.566 54.08 173.166 54.08C172.606 54.08 172.073 54.44 171.566 55.16C171.833 55.6133 172.019 56.1067 172.126 56.64C172.233 57.1467 172.286 57.7467 172.286 58.44C172.286 59.4533 172.126 60.3867 171.806 61.24C171.486 62.0933 170.979 62.8533 170.286 63.52C169.619 64.16 168.753 64.7067 167.686 65.16C166.619 65.6133 165.326 65.92 163.806 66.08C162.526 66.2133 161.633 66.3867 161.126 66.6C160.646 66.8133 160.406 67.1333 160.406 67.56C160.406 68.2 161.006 68.5733 162.206 68.68ZM164.126 63.8C164.979 63.8 165.646 63.3467 166.126 62.44C166.606 61.5333 166.846 60.2667 166.846 58.64C166.846 56.9867 166.606 55.72 166.126 54.84C165.646 53.9333 164.966 53.48 164.086 53.48C163.179 53.48 162.459 53.9333 161.926 54.84C161.393 55.7467 161.126 56.9867 161.126 58.56C161.126 60.16 161.393 61.44 161.926 62.4C162.486 63.3333 163.219 63.8 164.126 63.8ZM188.695 54V52.2C190.295 51.7467 191.629 51.0667 192.695 50.16C193.789 49.2267 194.602 48.16 195.135 46.96H197.175V51.8H201.775V54H197.175V66.28C197.175 67.9333 197.349 69.1067 197.695 69.8C198.069 70.4933 198.682 70.84 199.535 70.84C200.575 70.84 201.362 70.36 201.895 69.4L202.735 70.56C201.989 72.4533 200.229 73.4 197.455 73.4C195.615 73.4 194.175 72.9733 193.135 72.12C192.122 71.2667 191.615 70.0667 191.615 68.52V54H188.695ZM216.089 51.4C217.689 51.4 219.195 51.68 220.609 52.24C222.049 52.7733 223.302 53.52 224.369 54.48C225.462 55.44 226.315 56.5867 226.929 57.92C227.569 59.2267 227.889 60.6667 227.889 62.24C227.889 63.8667 227.569 65.36 226.929 66.72C226.315 68.08 225.462 69.2533 224.369 70.24C223.302 71.2267 222.049 72 220.609 72.56C219.195 73.12 217.689 73.4 216.089 73.4C214.515 73.4 213.022 73.1333 211.609 72.6C210.195 72.04 208.955 71.2667 207.889 70.28C206.822 69.2933 205.982 68.12 205.369 66.76C204.755 65.3733 204.449 63.8667 204.449 62.24C204.449 60.6667 204.755 59.2133 205.369 57.88C205.982 56.5467 206.822 55.4 207.889 54.44C208.955 53.48 210.195 52.7333 211.609 52.2C213.022 51.6667 214.515 51.4 216.089 51.4ZM216.089 53.72C215.289 53.72 214.555 53.9333 213.889 54.36C213.222 54.76 212.649 55.3333 212.169 56.08C211.715 56.8267 211.355 57.7333 211.089 58.8C210.849 59.84 210.729 61 210.729 62.28C210.729 63.6133 210.849 64.8133 211.089 65.88C211.355 66.9467 211.715 67.8533 212.169 68.6C212.649 69.3467 213.209 69.9333 213.849 70.36C214.515 70.76 215.262 70.96 216.089 70.96C216.915 70.96 217.662 70.76 218.329 70.36C219.022 69.9333 219.609 69.3467 220.089 68.6C220.569 67.8267 220.942 66.9067 221.209 65.84C221.475 64.7733 221.609 63.5867 221.609 62.28C221.609 61 221.475 59.84 221.209 58.8C220.942 57.76 220.569 56.8667 220.089 56.12C219.609 55.3467 219.022 54.76 218.329 54.36C217.662 53.9333 216.915 53.72 216.089 53.72ZM231.535 70.44C231.535 69.5867 231.815 68.8667 232.375 68.28C232.962 67.6667 233.682 67.36 234.535 67.36C235.415 67.36 236.148 67.6667 236.735 68.28C237.322 68.8667 237.615 69.5867 237.615 70.44C237.615 71.2667 237.322 71.9733 236.735 72.56C236.148 73.12 235.415 73.4 234.535 73.4C233.682 73.4 232.962 73.12 232.375 72.56C231.815 71.9733 231.535 71.2667 231.535 70.44ZM241.926 70.44C241.926 69.5867 242.206 68.8667 242.766 68.28C243.352 67.6667 244.072 67.36 244.926 67.36C245.806 67.36 246.539 67.6667 247.126 68.28C247.712 68.8667 248.006 69.5867 248.006 70.44C248.006 71.2667 247.712 71.9733 247.126 72.56C246.539 73.12 245.806 73.4 244.926 73.4C244.072 73.4 243.352 73.12 242.766 72.56C242.206 71.9733 241.926 71.2667 241.926 70.44ZM252.316 70.44C252.316 69.5867 252.596 68.8667 253.156 68.28C253.743 67.6667 254.463 67.36 255.316 67.36C256.196 67.36 256.93 67.6667 257.516 68.28C258.103 68.8667 258.396 69.5867 258.396 70.44C258.396 71.2667 258.103 71.9733 257.516 72.56C256.93 73.12 256.196 73.4 255.316 73.4C254.463 73.4 253.743 73.12 253.156 72.56C252.596 71.9733 252.316 71.2667 252.316 70.44Z" fill="url(#paint0_linear_129_1487)"/>
<path d="M260.077 63.5265C259.626 63.8453 259.002 63.7382 258.683 63.2872C258.365 62.8362 258.472 62.2122 258.923 61.8934L260.077 63.5265ZM421.5 75.71L421.039 76.5975L421.5 75.71ZM614.521 117.4C614.993 117.688 615.141 118.303 614.853 118.774L610.161 126.454C609.873 126.926 609.258 127.074 608.786 126.786C608.315 126.498 608.166 125.883 608.454 125.412L612.625 118.585L605.799 114.414C605.327 114.126 605.179 113.511 605.467 113.039C605.755 112.568 606.37 112.419 606.841 112.707L614.521 117.4ZM259.5 62.7099L258.923 61.8934C278.625 47.9657 338.504 31.4893 421.961 74.8225L421.5 75.71L421.039 76.5975C338.096 33.5307 279.041 50.1209 260.077 63.5265L259.5 62.7099ZM421.5 75.71L421.961 74.8225C473.957 101.82 507.224 115.958 534.825 121.594C562.369 127.219 584.329 124.389 613.765 117.281L614 118.253L614.235 119.225C584.671 126.364 562.381 129.263 534.425 123.554C506.526 117.857 473.043 103.6 421.039 76.5975L421.5 75.71Z" fill="#136EE7"/>
<path d="M260.077 63.9153C259.626 63.5965 259.002 63.7037 258.683 64.1547C258.365 64.6056 258.472 65.2297 258.923 65.5485L260.077 63.9153ZM421.5 51.7319L421.039 50.8444L421.5 51.7319ZM614.521 10.0422C614.993 9.75425 615.141 9.13877 614.853 8.66749L610.161 0.987532C609.873 0.516251 609.258 0.36763 608.786 0.655576C608.315 0.943522 608.166 1.559 608.454 2.03028L612.625 8.85691L605.799 13.0279C605.327 13.3158 605.179 13.9313 605.467 14.4026C605.755 14.8739 606.37 15.0225 606.841 14.7345L614.521 10.0422ZM259.5 64.7319L258.923 65.5485C278.625 79.4762 338.504 95.9526 421.961 52.6194L421.5 51.7319L421.039 50.8444C338.096 93.9112 279.041 77.321 260.077 63.9153L259.5 64.7319ZM421.5 51.7319L421.961 52.6194C473.957 25.6215 507.224 11.4838 534.825 5.84751C562.369 0.222975 584.329 3.05287 613.765 10.1609L614 9.18887L614.235 8.2168C584.671 1.07783 562.381 -1.82077 534.425 3.88795C506.526 9.58496 473.043 23.8423 421.039 50.8444L421.5 51.7319Z" fill="#136EE7"/>
<path d="M260.002 63C259.449 62.9992 259.001 63.4462 259 63.9985C258.999 64.5508 259.446 64.9992 259.998 65L260.002 63ZM586.706 65.2082C587.097 64.8183 587.098 64.1851 586.708 63.794L580.354 57.4203C579.964 57.0291 579.331 57.0282 578.94 57.4181C578.549 57.808 578.548 58.4412 578.938 58.8323L584.586 64.4978L578.92 70.146C578.529 70.5359 578.528 71.1691 578.918 71.5602C579.308 71.9513 579.941 71.9523 580.332 71.5624L586.706 65.2082ZM260 64L259.998 65L585.998 65.5L586 64.5L586.002 63.5L260.002 63L260 64Z" fill="#136EE7"/>
<defs>
<linearGradient id="paint0_linear_129_1487" x1="1.14883e-07" y1="36.4834" x2="261" y2="81.5166" gradientUnits="userSpaceOnUse">
<stop stop-color="#C2DCFF"/>
<stop offset="0.519231" stop-color="#0052BD"/>
</linearGradient>
</defs>
</svg>
