<svg width="32" height="32" viewBox="0 0 32 32" fill="none" xmlns="http://www.w3.org/2000/svg">
<path opacity="0.5" d="M4 13.3332C4 8.30517 4 5.7905 5.56267 4.22917C7.12533 2.66784 9.63867 2.6665 14.6667 2.6665H17.3333C22.3613 2.6665 24.876 2.6665 26.4373 4.22917C27.9987 5.79184 28 8.30517 28 13.3332V18.6665C28 23.6945 28 26.2092 26.4373 27.7705C24.8747 29.3318 22.3613 29.3332 17.3333 29.3332H14.6667C9.63867 29.3332 7.124 29.3332 5.56267 27.7705C4.00133 26.2078 4 23.6945 4 18.6665V13.3332Z" fill="white"/>
<path d="M22.0253 22.0012C22.2586 21.8199 22.4706 21.6079 22.8933 21.1852L28.1693 15.9079C28.2973 15.7812 28.2386 15.5612 28.0693 15.5012C27.2431 15.2148 26.4933 14.7433 25.8773 14.1226C25.2566 13.5066 24.785 12.7568 24.4986 11.9306C24.4386 11.7612 24.2186 11.7026 24.092 11.8306L18.8133 17.1066C18.3906 17.5292 18.1786 17.7412 17.9973 17.9746C17.7813 18.251 17.5982 18.547 17.448 18.8626C17.3213 19.1292 17.2266 19.4146 17.0373 19.9826L16.792 20.7159L16.4026 21.8826L16.0386 22.9759C15.9932 23.1129 15.9868 23.2599 16.0201 23.4003C16.0534 23.5408 16.1251 23.6692 16.2272 23.7713C16.3293 23.8734 16.4577 23.9451 16.5982 23.9784C16.7386 24.0117 16.8856 24.0053 17.0226 23.9599L18.116 23.5959L19.2826 23.2066L20.016 22.9612C20.584 22.7719 20.8693 22.6786 21.136 22.5506C21.4515 22.3994 21.7489 22.2163 22.0253 22.0012ZM29.8226 14.2559C30.3635 13.7148 30.6673 12.9811 30.6672 12.2161C30.667 11.4511 30.363 10.7174 29.822 10.1766C29.2809 9.63569 28.5472 9.33191 27.7822 9.33203C27.0171 9.33216 26.2835 9.63618 25.7426 10.1772L25.5746 10.3479C25.4935 10.4272 25.4331 10.5252 25.3987 10.6333C25.3643 10.7414 25.357 10.8563 25.3773 10.9679C25.404 11.1106 25.4506 11.3212 25.5373 11.5706C25.7106 12.0706 26.0386 12.7266 26.656 13.3439C27.2733 13.9612 27.9293 14.2892 28.4293 14.4626C28.68 14.5492 28.8893 14.5959 29.032 14.6226C29.1436 14.6417 29.2581 14.6338 29.366 14.5995C29.4739 14.5651 29.572 14.5054 29.652 14.4252L29.8226 14.2559Z" fill="white"/>
<path fill-rule="evenodd" clip-rule="evenodd" d="M9.66663 12C9.66663 11.7348 9.77198 11.4804 9.95952 11.2929C10.1471 11.1054 10.4014 11 10.6666 11H19.3333C19.5985 11 19.8529 11.1054 20.0404 11.2929C20.2279 11.4804 20.3333 11.7348 20.3333 12C20.3333 12.2652 20.2279 12.5196 20.0404 12.7071C19.8529 12.8946 19.5985 13 19.3333 13H10.6666C10.4014 13 10.1471 12.8946 9.95952 12.7071C9.77198 12.5196 9.66663 12.2652 9.66663 12ZM9.66663 17.3333C9.66663 17.0681 9.77198 16.8138 9.95952 16.6262C10.1471 16.4387 10.4014 16.3333 10.6666 16.3333H14.6666C14.9318 16.3333 15.1862 16.4387 15.3737 16.6262C15.5613 16.8138 15.6666 17.0681 15.6666 17.3333C15.6666 17.5985 15.5613 17.8529 15.3737 18.0404C15.1862 18.228 14.9318 18.3333 14.6666 18.3333H10.6666C10.4014 18.3333 10.1471 18.228 9.95952 18.0404C9.77198 17.8529 9.66663 17.5985 9.66663 17.3333ZM9.66663 22.6667C9.66663 22.4015 9.77198 22.1471 9.95952 21.9596C10.1471 21.772 10.4014 21.6667 10.6666 21.6667H12.6666C12.9318 21.6667 13.1862 21.772 13.3737 21.9596C13.5613 22.1471 13.6666 22.4015 13.6666 22.6667C13.6666 22.9319 13.5613 23.1862 13.3737 23.3738C13.1862 23.5613 12.9318 23.6667 12.6666 23.6667H10.6666C10.4014 23.6667 10.1471 23.5613 9.95952 23.3738C9.77198 23.1862 9.66663 22.9319 9.66663 22.6667Z" fill="white"/>
</svg>
