<svg width="14" height="14" viewBox="0 0 14 14" fill="none" xmlns="http://www.w3.org/2000/svg">
<path fill-rule="evenodd" clip-rule="evenodd" d="M7.78807 1.78739C7.71587 1.75811 7.63855 1.74359 7.56065 1.74469C7.48275 1.74578 7.40586 1.76247 7.33451 1.79376C7.26317 1.82506 7.19882 1.87032 7.14525 1.9269C7.09169 1.98347 7.05 2.05019 7.02264 2.12314C6.99529 2.19609 6.98282 2.27377 6.98598 2.35161C6.98914 2.42946 7.00786 2.50588 7.04104 2.57637C7.07421 2.64686 7.12117 2.70999 7.17914 2.76203C7.23711 2.81408 7.30492 2.85398 7.37857 2.87939L7.58332 2.95639V4.80439L1.59657 6.43773C1.46064 6.47522 1.34288 6.56068 1.2651 6.6783C1.18733 6.79591 1.15478 6.93772 1.1735 7.07749C1.19221 7.21725 1.26092 7.3455 1.3669 7.43851C1.47289 7.53152 1.60898 7.58299 1.74999 7.58339V11.0834C1.74999 11.3928 1.8729 11.6896 2.09169 11.9083C2.31049 12.1271 2.60723 12.2501 2.91665 12.2501H11.0833C11.3927 12.2501 11.6895 12.1271 11.9083 11.9083C12.1271 11.6896 12.25 11.3928 12.25 11.0834V4.66673C12.3865 4.66659 12.5187 4.61855 12.6235 4.53097C12.7283 4.44339 12.799 4.32183 12.8234 4.18746C12.8477 4.05309 12.8242 3.91443 12.7568 3.79564C12.6895 3.67685 12.5826 3.58546 12.4547 3.53739L7.78807 1.78739ZM11.0833 4.26889L8.74999 3.39389V11.0834H11.0833V4.26889ZM5.83332 9.33339V11.0834H7.58332V6.01423L2.91665 7.28589V11.0834H4.66665V9.33339C4.66665 9.17868 4.72811 9.03031 4.83751 8.92091C4.9469 8.81152 5.09528 8.75006 5.24999 8.75006C5.4047 8.75006 5.55307 8.81152 5.66246 8.92091C5.77186 9.03031 5.83332 9.17868 5.83332 9.33339ZM9.04165 6.41673C9.04165 6.26202 9.10311 6.11364 9.21251 6.00425C9.3219 5.89485 9.47028 5.83339 9.62498 5.83339H10.2083C10.363 5.83339 10.5114 5.89485 10.6208 6.00425C10.7302 6.11364 10.7917 6.26202 10.7917 6.41673C10.7917 6.57144 10.7302 6.71981 10.6208 6.82921C10.5114 6.9386 10.363 7.00006 10.2083 7.00006H9.62498C9.47028 7.00006 9.3219 6.9386 9.21251 6.82921C9.10311 6.71981 9.04165 6.57144 9.04165 6.41673ZM9.62498 8.16673C9.47028 8.16673 9.3219 8.22818 9.21251 8.33758C9.10311 8.44698 9.04165 8.59535 9.04165 8.75006C9.04165 8.90477 9.10311 9.05314 9.21251 9.16254C9.3219 9.27193 9.47028 9.33339 9.62498 9.33339H10.2083C10.363 9.33339 10.5114 9.27193 10.6208 9.16254C10.7302 9.05314 10.7917 8.90477 10.7917 8.75006C10.7917 8.59535 10.7302 8.44698 10.6208 8.33758C10.5114 8.22818 10.363 8.16673 10.2083 8.16673H9.62498Z" fill="#136EE7"/>
</svg>
