<svg width="88" height="88" viewBox="0 0 88 88" fill="none" xmlns="http://www.w3.org/2000/svg">
<path d="M24.6398 61.0133C25.5734 60.741 26.5769 60.8508 27.4296 61.3184C28.2822 61.7859 28.9142 62.5731 29.1865 63.5067C29.4588 64.4402 29.3491 65.4437 28.8815 66.2964C28.4139 67.1491 27.6267 67.781 26.6932 68.0533C24.8598 68.5887 23.5398 69.1533 22.6928 69.6667C23.5655 70.191 24.9442 70.7777 26.8582 71.324C31.0932 72.534 37.1542 73.3333 43.9998 73.3333C50.8455 73.3333 56.9065 72.534 61.1415 71.324C63.0592 70.7777 64.4342 70.191 65.3068 69.6667C64.4635 69.1533 63.1435 68.5887 61.3102 68.0533C60.3913 67.7691 59.6209 67.1351 59.1651 66.2881C58.7093 65.4412 58.6045 64.449 58.8734 63.5255C59.1423 62.602 59.7632 61.8211 60.6025 61.3512C61.4417 60.8813 62.432 60.7599 63.3598 61.0133C65.8092 61.7283 68.0532 62.645 69.7765 63.822C71.3715 64.9183 73.3332 66.8287 73.3332 69.6667C73.3332 72.5377 71.3238 74.4627 69.7032 75.559C67.9505 76.7397 65.6588 77.66 63.1545 78.375C58.1018 79.8233 51.3332 80.6667 43.9998 80.6667C36.6665 80.6667 29.8978 79.8233 24.8452 78.375C22.3408 77.66 20.0492 76.7397 18.2965 75.559C16.6758 74.459 14.6665 72.5377 14.6665 69.6667C14.6665 66.8287 16.6282 64.9183 18.2232 63.822C19.9465 62.645 22.1905 61.7283 24.6398 61.0133ZM43.9998 27.5C38.3532 27.5 34.8258 33.6123 37.6492 38.5C38.9582 40.7697 41.3782 42.1667 43.9998 42.1667C49.6465 42.1667 53.1738 36.0543 50.3505 31.1667C49.7069 30.0519 48.7812 29.1262 47.6664 28.4825C46.5516 27.8389 45.2871 27.5 43.9998 27.5Z" fill="#136EE7"/>
<path opacity="0.3" d="M44 7.33337C51.2935 7.33337 58.2882 10.2307 63.4454 15.3879C68.6027 20.5452 71.5 27.5399 71.5 34.8334C71.5 44.2494 66.3667 51.9054 61.05 57.3467C58.9365 59.4878 56.6654 61.4672 54.2557 63.2684C52.0777 64.9037 47.0983 67.969 47.0983 67.969C46.1539 68.5058 45.0863 68.7881 44 68.7881C42.9137 68.7881 41.8461 68.5058 40.9017 67.969C38.4305 66.5361 36.0411 64.9668 33.7443 63.2684C31.3346 61.4672 29.0635 59.4878 26.95 57.3467C21.6333 51.9054 16.5 44.2494 16.5 34.8334C16.5 27.5399 19.3973 20.5452 24.5546 15.3879C29.7118 10.2307 36.7065 7.33337 44 7.33337Z" fill="#136EE7"/>
</svg>
