<svg width="320" height="310" viewBox="0 0 320 310" fill="none" xmlns="http://www.w3.org/2000/svg">
<path d="M118.097 83.0308L131.294 79.0519C135.65 77.7409 140.333 78.059 144.471 79.9469C148.61 81.8349 151.92 85.1638 153.784 89.3126L163.037 109.888C164.643 113.458 165.09 117.441 164.317 121.278C163.543 125.115 161.587 128.613 158.724 131.282L144.641 144.404C142.754 146.196 144.185 153.179 151.08 165.13C157.981 177.087 163.316 181.815 165.776 181.079L184.226 175.438C187.966 174.294 191.97 174.349 195.677 175.595C199.384 176.842 202.608 179.217 204.897 182.388L218.046 200.613C220.702 204.293 221.932 208.812 221.507 213.331C221.083 217.85 219.032 222.06 215.737 225.181L205.571 234.808C202.29 237.916 198.243 240.097 193.843 241.13C189.443 242.163 184.848 242.011 180.526 240.688C159.228 234.168 139.504 214.818 121.088 182.912C102.631 150.958 95.6611 124.005 100.519 101.985C101.499 97.5481 103.644 93.4526 106.734 90.1208C109.824 86.7891 113.746 84.3417 118.097 83.0308Z" fill="url(#paint0_linear_87_1379)"/>
<defs>
<linearGradient id="paint0_linear_87_1379" x1="109.5" y1="201.505" x2="208.13" y2="146.349" gradientUnits="userSpaceOnUse">
<stop stop-color="#002657"/>
<stop offset="0.719134" stop-color="#136EE7"/>
</linearGradient>
</defs>
</svg>
