<svg width="77" height="77" viewBox="0 0 77 77" fill="none" xmlns="http://www.w3.org/2000/svg">
<path d="M69.7808 51.1328H18.2269C19.2315 49.1657 20.2511 47.1174 21.2527 45.03C21.6803 45.1 22.1128 45.1352 22.5461 45.1352C26.8262 45.1352 31.8974 41.7905 37.6844 35.1433C37.9852 36.0456 38.3461 37.0232 38.7913 38.0188C40.8637 42.6658 43.5075 45.054 46.6537 45.1172H46.771C49.4209 45.1172 52.0979 43.3817 54.8921 39.8295C56.6457 42.3139 60.6431 45.1172 69.7808 45.1172C70.2594 45.1172 70.7184 44.9271 71.0569 44.5886C71.3953 44.2502 71.5855 43.7911 71.5855 43.3125C71.5855 42.8339 71.3953 42.3748 71.0569 42.0364C70.7184 41.6979 70.2594 41.5078 69.7808 41.5078C57.8428 41.5078 57.1841 36.5118 57.148 36.0757C57.1624 35.6878 57.0476 35.306 56.8217 34.9903C56.5958 34.6746 56.2715 34.4428 55.8997 34.3312C55.517 34.2178 55.1078 34.2326 54.7342 34.3732C54.3607 34.5138 54.0433 34.7726 53.8304 35.1102C50.1729 40.7258 47.7937 41.5259 46.7229 41.5078C43.4805 41.4446 40.975 34.3853 40.2681 30.9805C40.199 30.6444 40.0355 30.335 39.7969 30.0885C39.5582 29.842 39.2542 29.6687 38.9205 29.5888C38.5868 29.509 38.2373 29.5259 37.9129 29.6376C37.5885 29.7493 37.3026 29.9511 37.0889 30.2195C31.4733 37.2548 26.4683 41.207 22.913 41.4837C30.0777 25.8191 32.2523 15.8512 29.5453 11.0627C28.7061 9.58289 26.9676 7.82031 23.4334 7.82031C18.9217 7.82031 15.3123 12.2177 13.5618 19.8816C11.5134 28.857 12.6684 39.7031 17.9321 43.6133C16.6839 46.212 15.4055 48.7506 14.1663 51.1328H7.21828C6.73965 51.1328 6.28062 51.3229 5.94217 51.6614C5.60373 51.9998 5.41359 52.4589 5.41359 52.9375C5.41359 53.4161 5.60373 53.8752 5.94217 54.2136C6.28062 54.5521 6.73965 54.7422 7.21828 54.7422H12.2594C8.61691 61.5338 5.71438 66.3704 5.67227 66.4456C5.54167 66.6488 5.45319 66.8761 5.41208 67.1141C5.37096 67.3522 5.37805 67.596 5.43291 67.8312C5.48778 68.0665 5.58931 68.2883 5.73148 68.4836C5.87365 68.6788 6.05358 68.8436 6.2606 68.968C6.46761 69.0925 6.69751 69.1741 6.93665 69.2081C7.1758 69.2421 7.41933 69.2277 7.65281 69.1658C7.88629 69.1039 8.10498 68.9958 8.2959 68.8478C8.48682 68.6998 8.6461 68.5151 8.7643 68.3044C8.81242 68.2262 12.2413 62.5084 16.347 54.7422H69.7808C70.2594 54.7422 70.7184 54.5521 71.0569 54.2136C71.3953 53.8752 71.5855 53.4161 71.5855 52.9375C71.5855 52.4589 71.3953 51.9998 71.0569 51.6614C70.7184 51.3229 70.2594 51.1328 69.7808 51.1328ZM17.0809 20.6847C18.3622 15.0631 20.8557 11.4297 23.4334 11.4297C25.3584 11.4297 26.0321 12.1846 26.4021 12.8404C27.6052 14.9458 28.2068 21.3073 19.5202 40.2114C16.4192 37.1134 15.2582 28.6645 17.0809 20.6847Z" fill="#002657"/>
</svg>
