<svg width="36" height="36" viewBox="0 0 36 36" fill="none" xmlns="http://www.w3.org/2000/svg">
<path d="M27.7245 25.1506C25.6742 25.6429 23.5339 25.619 21.4951 25.0812C19.4564 24.5433 17.5828 23.5082 16.0423 22.0686C14.5017 20.6289 13.3422 18.8297 12.6677 16.832C11.9931 14.8343 11.8245 12.7004 12.177 10.6216C12.1242 10.6742 12.0675 10.7229 12.0075 10.7671C11.5875 11.0866 11.0625 11.2051 10.0125 11.4421L9.05999 11.6581C5.36999 12.4936 3.52499 12.9106 3.08549 14.3221C2.64749 15.7321 3.90449 17.2036 6.41999 20.1451L7.07099 20.9056C7.78499 21.7411 8.14349 22.1596 8.30399 22.6756C8.46449 23.1931 8.41049 23.7511 8.30249 24.8656L8.20349 25.8811C7.82399 29.8066 7.63349 31.7686 8.78249 32.6401C9.93149 33.5116 11.6595 32.7181 15.1125 31.1266L16.008 30.7156C16.989 30.2626 17.4795 30.0376 18 30.0376C18.5205 30.0376 19.011 30.2626 19.9935 30.7156L20.886 31.1266C24.3405 32.7166 26.0685 33.5116 27.216 32.6416C28.3665 31.7686 28.176 29.8066 27.7965 25.8811L27.7245 25.1506Z" fill="#FFDB00"/>
<path opacity="0.9" d="M13.7295 8.112L13.2375 8.994C12.6975 9.963 12.4275 10.4475 12.0075 10.767C12.0675 10.722 12.124 10.6735 12.177 10.6215C11.8245 12.7005 11.993 14.8345 12.6677 16.8324C13.3423 18.8302 14.5019 20.6296 16.0427 22.0693C17.5834 23.509 19.4572 24.544 21.4962 25.0817C23.5352 25.6195 25.6757 25.6431 27.726 25.1505L27.696 24.8655C27.5895 23.751 27.5355 23.193 27.696 22.6755C27.8565 22.1595 28.2135 21.741 28.929 20.9055L29.58 20.145C32.0955 17.205 33.3525 15.7335 32.913 14.322C32.475 12.9105 30.63 12.492 26.94 11.658L25.986 11.442C24.9375 11.205 24.4125 11.0865 23.991 10.767C23.571 10.4475 23.301 9.963 22.761 8.994L22.2705 8.112C20.37 4.704 19.4205 3 18 3C16.5795 3 15.63 4.704 13.7295 8.112Z" fill="#FFDB00"/>
</svg>
