<svg width="1440" height="368" viewBox="0 0 1440 368" fill="none" xmlns="http://www.w3.org/2000/svg">
<path d="M-577 184C-552.333 172 -527.667 172 -503 184C-478.333 196 -453.667 196 -429 184C-404.333 172 -379.667 172 -355 184C-330.333 196 -305.667 196 -281 184C-256.333 172 -231.667 172 -207 184C-182.333 196 -157.667 196 -133 184C-108.333 172 -83.6667 172 -59 184C-34.3333 196 -9.66667 196 15 184C39.6667 172 64.3333 172 89 184C113.667 196 138.333 196 163 184C187.667 172 212.333 172 237 184C261.667 196 286.333 196 311 184C335.667 172 360.333 172 385 184C409.667 196 434.333 196 459 184C483.667 172 508.333 172 533 184C557.667 196 582.333 196 607 184C631.667 172 656.333 172 681 184C705.667 196 730.333 196 755 184C779.667 172 804.333 172 829 184C853.667 196 878.333 196 903 184C927.667 172 952.333 172 977 184C1001.67 196 1026.33 196 1051 184C1075.67 172 1100.33 172 1125 184C1149.67 196 1174.33 196 1199 184C1223.67 172 1248.33 172 1273 184C1297.67 196 1322.33 196 1347 184C1371.67 172 1396.33 172 1421 184C1445.67 196 1470.33 196 1495 184C1519.67 172 1544.33 172 1569 184C1593.67 196 1618.33 196 1643 184C1667.67 172 1692.33 172 1717 184C1741.67 196 1766.33 196 1791 184C1815.67 172 1840.33 172 1865 184C1889.67 196 1914.33 196 1939 184" stroke="#F2574C" stroke-width="2"/>
<path d="M-538.474 178.244C-513.807 166.244 -489.141 166.244 -464.474 178.244C-439.807 190.244 -415.141 190.244 -390.474 178.244C-365.807 166.244 -341.141 166.244 -316.474 178.244C-291.807 190.244 -267.141 190.244 -242.474 178.244C-217.807 166.244 -193.141 166.244 -168.474 178.244C-143.807 190.244 -119.141 190.244 -94.4739 178.244C-69.8072 166.244 -45.1405 166.244 -20.4739 178.244C4.19279 190.244 28.8595 190.244 53.5261 178.244C78.1928 166.244 102.859 166.244 127.526 178.244C152.193 190.244 176.859 190.244 201.526 178.244C226.193 166.244 250.859 166.244 275.526 178.244C300.193 190.244 324.859 190.244 349.526 178.244C374.193 166.244 398.859 166.244 423.526 178.244C448.193 190.244 472.859 190.244 497.526 178.244C522.193 166.244 546.859 166.244 571.526 178.244C596.193 190.244 620.859 190.244 645.526 178.244C670.193 166.244 694.859 166.244 719.526 178.244C744.193 190.244 768.859 190.244 793.526 178.244C818.193 166.244 842.859 166.244 867.526 178.244C892.193 190.244 916.859 190.244 941.526 178.244C966.193 166.244 990.859 166.244 1015.53 178.244C1040.19 190.244 1064.86 190.244 1089.53 178.244C1114.19 166.244 1138.86 166.244 1163.53 178.244C1188.19 190.244 1212.86 190.244 1237.53 178.244C1262.19 166.244 1286.86 166.244 1311.53 178.244C1336.19 190.244 1360.86 190.244 1385.53 178.244C1410.19 166.244 1434.86 166.244 1459.53 178.244C1484.19 190.244 1508.86 190.244 1533.53 178.244C1558.19 166.244 1582.86 166.244 1607.53 178.244C1632.19 190.244 1656.86 190.244 1681.53 178.244C1706.19 166.244 1730.86 166.244 1755.53 178.244C1780.19 190.244 1804.86 190.244 1829.53 178.244C1854.19 166.244 1878.86 166.244 1903.53 178.244C1928.19 190.244 1952.86 190.244 1977.53 178.244" stroke="#4CC9F2" stroke-width="2"/>
<path d="M-564.253 8.91241C-538.156 0.462132 -513.729 3.89507 -490.973 19.2112C-468.216 34.5274 -443.79 37.9603 -417.693 29.51C-391.596 21.0598 -367.17 24.4927 -344.413 39.8088C-321.657 55.125 -297.23 58.5579 -271.133 50.1077C-245.037 41.6574 -220.61 45.0903 -197.853 60.4065C-175.097 75.7226 -150.67 79.1556 -124.574 70.7053C-98.4768 62.255 -74.0502 65.6879 -51.2937 81.0041C-28.5371 96.3202 -4.11053 99.7532 21.9862 91.3029C48.0829 82.8526 72.5095 86.2855 95.266 101.602C118.023 116.918 142.449 120.351 168.546 111.901C194.643 103.45 219.069 106.883 241.826 122.199C264.582 137.515 289.009 140.948 315.106 132.498C341.202 124.048 365.629 127.481 388.385 142.797C411.142 158.113 435.569 161.546 461.665 153.096C487.762 144.645 512.189 148.078 534.945 163.395C557.702 178.711 582.128 182.144 608.225 173.693C634.322 165.243 658.748 168.676 681.505 183.992C704.261 199.308 728.688 202.741 754.785 194.291C780.881 185.841 805.308 189.274 828.064 204.59C850.821 219.906 875.248 223.339 901.344 214.889C927.441 206.438 951.868 209.871 974.624 225.187C997.381 240.504 1021.81 243.937 1047.9 235.486C1074 227.036 1098.43 230.469 1121.18 245.785C1143.94 261.101 1168.37 264.534 1194.46 256.084C1220.56 247.634 1244.99 251.067 1267.74 266.383C1290.5 281.699 1314.93 285.132 1341.02 276.681C1367.12 268.231 1391.55 271.664 1414.3 286.98C1437.06 302.296 1461.49 305.729 1487.58 297.279C1513.68 288.829 1538.11 292.262 1560.86 307.578C1583.62 322.894 1608.05 326.327 1634.14 317.877C1660.24 309.426 1684.67 312.859 1707.42 328.176C1730.18 343.492 1754.61 346.925 1780.7 338.474C1806.8 330.024 1831.23 333.457 1853.98 348.773C1876.74 364.089 1901.17 367.522 1927.26 359.072" stroke="#F2CB4C" stroke-width="2"/>
<path d="M-564.253 359.088C-538.156 367.538 -513.729 364.105 -490.973 348.789C-468.216 333.473 -443.79 330.04 -417.693 338.49C-391.596 346.94 -367.17 343.507 -344.413 328.191C-321.657 312.875 -297.23 309.442 -271.133 317.892C-245.037 326.343 -220.61 322.91 -197.853 307.594C-175.097 292.277 -150.67 288.844 -124.574 297.295C-98.4768 305.745 -74.0502 302.312 -51.2937 286.996C-28.5371 271.68 -4.11053 268.247 21.9862 276.697C48.0829 285.147 72.5095 281.714 95.266 266.398C118.023 251.082 142.449 247.649 168.546 256.099C194.643 264.55 219.069 261.117 241.826 245.801C264.582 230.485 289.009 227.052 315.106 235.502C341.202 243.952 365.629 240.519 388.385 225.203C411.142 209.887 435.569 206.454 461.665 214.904C487.762 223.355 512.189 219.922 534.945 204.605C557.702 189.289 582.128 185.856 608.225 194.307C634.322 202.757 658.748 199.324 681.505 184.008C704.261 168.692 728.688 165.259 754.785 173.709C780.881 182.159 805.308 178.726 828.064 163.41C850.821 148.094 875.248 144.661 901.344 153.111C927.441 161.562 951.868 158.129 974.624 142.813C997.381 127.496 1021.81 124.063 1047.9 132.514C1074 140.964 1098.43 137.531 1121.18 122.215C1143.94 106.899 1168.37 103.466 1194.46 111.916C1220.56 120.366 1244.99 116.933 1267.74 101.617C1290.5 86.3012 1314.93 82.8683 1341.02 91.3185C1367.12 99.7688 1391.55 96.3359 1414.3 81.0197C1437.06 65.7036 1461.49 62.2706 1487.58 70.7209C1513.68 79.1712 1538.11 75.7383 1560.86 60.4221C1583.62 45.1059 1608.05 41.673 1634.14 50.1233C1660.24 58.5736 1684.67 55.1406 1707.42 39.8245C1730.18 24.5083 1754.61 21.0754 1780.7 29.5257C1806.8 37.976 1831.23 34.543 1853.98 19.2269C1876.74 3.91071 1901.17 0.477773 1927.26 8.92805" stroke="#08C654" stroke-width="2"/>
</svg>
